<?xml version="1.0" encoding="iso-8859-1"?>
<!-- Generator: Adobe Illustrator 21.0.2, SVG Export Plug-In . SVG Version: 6.00 Build 0)  -->
<svg version="1.1" id="Layer_1" xmlns="http://www.w3.org/2000/svg" xmlns:xlink="http://www.w3.org/1999/xlink" x="0px" y="0px"
	 viewBox="0 0 100 100" enable-background="new 0 0 100 100" xml:space="preserve">
<g>
	<path fill="#008b66" d="M50.136,14.428c2.859,0,5.176,2.219,5.176,4.968c0,2.745-2.317,4.975-5.176,4.975
		c-2.864,0-5.177-2.229-5.177-4.975C44.959,16.647,47.272,14.428,50.136,14.428"/>
	<path fill="#008b66" d="M45.82,26.647l4.314,0.001l4.673-0.002c4.939,0,6.619,0.675,6.619,5.882l-1.763,13.997
		c0,2.956-3.567,4.116-3.567,4.116L53.586,72.64c0,3.963-7.981,3.963-7.981,0l-1.893-22.395c0,0-3.245-0.989-3.245-3.944
		l-1.761-14.168C38.715,26.925,40.874,26.647,45.82,26.647"/>
	<path fill="#008b66" d="M95,74.106c0,6.059-20.089,11.466-44.865,11.466C25.356,85.572,5,80.166,5,74.107
		C5,68.051,25.356,63.14,50.135,63.14C74.911,63.14,95,68.049,95,74.106z M50.135,63.186c-23.214,0-41.343,4.543-41.343,9.968
		c0,5.427,18.016,9.038,41.23,9.038s41.31-3.814,41.31-9.242C91.332,67.526,73.349,63.186,50.135,63.186z"/>
</g>
</svg>
