<?xml version="1.0" encoding="utf-8"?>
<!-- Generator: Adobe Illustrator 21.0.2, SVG Export Plug-In . SVG Version: 6.00 Build 0)  -->
<svg version="1.1" id="Layer_1" xmlns="http://www.w3.org/2000/svg" xmlns:xlink="http://www.w3.org/1999/xlink" x="0px" y="0px"
	 viewBox="0 0 100 100" style="enable-background:new 0 0 100 100;" xml:space="preserve">
<style type="text/css">
	.st0{fill:#FFFFFF;}
</style>
<path class="st0" d="M26,14.1l-0.8,1.2l-0.1,0.9l0.5,1.3l2.5,4.2l3.1,4.6l4,5.3l3.4,4l2.2,2.4l1.8,1.7l1.8,1.6l1.3,1.4l0.7,1.1
	l0.5,1.2c0,0,0.3,1.2,0.3,1.2c0.1,0.9,0.2,1.9,0,2.8c-0.2,0.9-0.7,1.6-1.1,2.5c-0.3,0.7-0.6,1.5-0.6,2.3c0,0.5,0.2,1,0.3,1.4
	c0.1,0.2,0.3,0.5,0.4,0.7c0.2,0.4,0.3,0.8,0.5,1.2c0.6,1.9,0.6,3.8,0.6,5.7c0,1.8-0.1,3.6-0.4,5.3l-0.9,3.6l-0.8,3.7l-2.3,9.3
	l-0.8,3.4l-1.8,0.2l2-8l1.1-4.6l1.1-4.7c0,0,0.7-3.2,0.7-3.2c0.1-0.6,0.2-1.3,0.3-1.9c0.1-0.6,0.2-1.2,0.2-1.8
	c0.1-0.4,0.2-0.9,0.2-1.3c0.1-0.8,0.1-1.6,0.1-2.3c0-0.8,0.1-1.6-0.1-2.4c-0.3-1.6-1.6-2.6-2-4.2c-0.2-0.8,0-1.5,0.2-2.2
	c0.3-0.8,0.5-1.5,0.9-2.3c0.1-0.3,0.3-0.6,0.3-0.9c0.1-0.6,0-1.2-0.2-1.8c-0.2-0.6-0.6-1.2-0.9-1.7c-0.2-0.3-0.4-0.7-0.7-0.9
	c0,0-2.3-2.3-2.3-2.3l-2.7-2.5l-2.4-3l-2.8-3.4l-2.3-3.2L29,26.1l-1.9-3.2l-1.6-3.3l-0.8-2.1l-0.4-1.3L23,16.9l-1.7,0.3l-1.4,0.1
	l-1,0.3c0,0-1.2,0.8-1.2,0.9c-0.2,0.2-0.6,0.3-0.8,0.4c-0.6,0.2-1.4,0.1-2,0.1c-0.1,0-0.2,0-0.3,0c-0.1,0-0.2-0.1-0.3-0.1
	c-0.3-0.2-0.6-0.4-0.9-0.7c-0.2-0.2-0.6-0.4-0.8-0.7c-0.1-0.2-0.1-0.7-0.1-1c0-0.5,0.2-0.9,0.4-1.3c0.2-0.4,0.5-0.7,0.8-1.1
	c0.2-0.3,0.5-0.6,0.7-0.8c0.3-0.3,0.5-0.7,0.8-1c0,0,1.4-1.6,1.4-1.6l1.6-1.3l1.2-0.7l0.3-0.2l-0.2-0.8l0-1l0.3-0.8L20,5.3h0.7
	l0.5,0.1L21.4,6l0,0.6l-0.1,0.7l-0.2,0.4L21,8.1l0.6,0L22.2,8l-0.1-1.6l0.5-1.1l0.5-1l0.7-0.6h0.6l0.4,0.5l0,0.6l-0.3,0.8l-0.4,0.6
	L24,6.8l0,0.7l0.1,0.3l0,0.8l-0.1,0.7L24,9.8L23.6,10l-0.5-0.1l-0.3-0.4l-0.2-0.3l-1.2,0.1L19.8,10l-1.4,1.4l-1.7,1.8l-1.4,1.5
	c0,0-0.8,1-0.8,1c0,0.2-0.1,0.3-0.2,0.5c0,0.2,0.1,0.5,0.2,0.7c0.6,0.1,1.1,0,1.7,0c0.1,0,0.2,0,0.4-0.1c0.1-0.1,0.2-0.1,0.3-0.2
	c0.7-0.6,1.5-0.8,2.4-0.8c1.4,0,2.7-0.1,4.1-0.3c0,0,1-0.4,1-0.4l0.6-0.6l0.4-0.4l0.3-0.2L26,14.1z"/>
<path class="st0" d="M24.2,7.6l0.1,0.7l-0.1,0.8l0.9-0.1c0,0,1.4-0.6,1.5-0.6c0.1,0,0.2-0.1,0.2-0.2C27,8,27.1,8,27.2,7.9
	c0.2-0.2,0.4-0.4,0.6-0.7c0.1,0,0.2,0,0.3,0c0.1,0.2,0.2,0.3,0.2,0.5c0,0.1,0,0.2,0,0.3c0,0.5,0,1,0,1.5c0,0-0.4,0.5-0.4,0.5
	c-0.2,0.2-0.5,0.3-0.5,0.6c0,0.1,0,0.1,0,0.2c0,0.3,0.2,0.6,0.4,0.9c0,0,2,2.7,2,2.7l1.8,2.7l1.8,2.7l1.9,2.4l1.8,2.1l1.7,1.8
	l2.3,2.1l2.1,1.5l1.8,1.3l1.6,1l1.7,0.7l1.6,0.6c0,0,1.2,0.3,1.2,0.3c0.8,0.2,1.6,0.3,2.4,0.5c0.6,0.2,1.2,0.6,1.6,1
	c0.4,0.4,0.7,0.9,1,1.4l0.7,1.3l0.9,1.7l0.8,1.3l0.9,1l0.9,1.1l1.2,0.8l1.3,0.8l1.4,0.5l1.6,0.5c0,0,1.4,0.3,1.4,0.3
	c1.3,0.3,2.7,0.5,3.9,0.9c2.5,0.8,4.5,2.2,6.5,3.9l1.4,1.4l0.8,1.3c0,0,0.9,2.4,0.9,2.4c0.1,0.4,0.2,1,0.2,1.4c0,0.6,0,1.7,0,2.3
	c0,1.5-0.4,1.9-0.6,3.4c-0.2,1.2-0.7,2.3-1.1,3.4c-0.5,1.5-0.8,3.2-0.8,4.8l0.6,3l1,3.2l0.8,2.8l1,3.9l0.3,2.4v3.8v2.5l0.7-0.6
	l0.6-1.6l0.5-4l-0.3-3.2l-0.8-3.6l-1-3.2L81.1,74c0,0-0.3-2.1-0.3-2.1c-0.1-0.9,0-2,0.1-2.9c0.1-0.8,0.2-2,0.7-2.7
	c0,0,0.2,0.2,0.2,0.2c0.6,1.2,1.3,2.3,2.6,3c0.4,0.2,0.7,0.4,1.1,0.6c0.6,0.5,0.9,1.3,0.9,2c0,0.6-0.1,1.2-0.1,1.8
	c0,0.4-0.2,0.7-0.1,1.1c0.1,0,0.3,0,0.4,0c0.2,0,0.5-1,0.5-1.1c0.2-0.4,0.3-0.9,0.3-1.3c0.1-0.8,0.1-1.8-0.1-2.6
	c-0.1-0.3-0.1-0.5-0.3-0.7c-0.5-0.9-1.7-1.1-2.5-1.9c-0.7-0.7-0.8-1.8-0.8-2.7c0,0,0-1.5,0-1.5s0.2-1.5,0.2-1.5c0.2-1.9,0-4-0.5-5.8
	c-0.5-1.5-1.3-3.2-2.4-4.5c-1.5-1.5-2.9-2.9-4.7-3.9c-2-1.2-4.1-2-6.3-2.7c-0.4-0.1-0.7-0.2-1.1-0.3c0,0-2.2-0.6-2.2-0.6l-1.9-0.7
	l-1.6-0.8l-1.7-1.3l-1-1.1l-1-1.8l-0.9-1.8c0,0-1-1.6-1-1.6c-0.2-0.3-0.4-0.6-0.7-0.9c-0.3-0.4-0.7-0.7-1-1.1
	c-0.1-0.1-0.1-0.1-0.2-0.2c-0.1-0.1-0.2-0.1-0.3-0.2c-0.6-0.3-1.2-0.5-1.8-0.8c-0.2-0.1-0.3-0.1-0.5-0.2c-0.4-0.1-0.9-0.2-1.4-0.2
	c0,0-1.8-0.4-1.8-0.4l-1.7-0.8L47,29.4l-2.8-1.6l-2.9-2l-2.5-2.3L36.4,21l-2.2-2.5l-1.8-2.4l-2.2-3.1c0,0-1.2-1.5-1.2-1.5
	c-0.1-0.1-0.2-0.2-0.3-0.2c-0.1-0.1-0.3-0.2-0.4-0.4c0-0.3,0.2-0.5,0.4-0.7c0,0,0.6-0.6,0.6-0.6s0.2-0.4,0.2-0.4
	c0.1-0.2,0.1-0.6,0.1-0.8c0-0.4-0.1-0.7-0.1-1.1c-0.1-0.6-0.5-0.9-0.8-1.4c-0.1-0.1-0.1-0.1-0.2-0.2c-0.1-0.1-0.3,0-0.5,0
	c-0.2,0.1-0.3,0.2-0.4,0.3c-0.2,0.2-0.3,0.3-0.5,0.5c-0.3,0.4-0.7,0.6-1.2,0.7c-0.3,0.1-0.6,0.1-0.9,0.2L24.2,7.6z"/>
<polygon class="st0" points="43.2,87.8 44.7,87.5 46.3,82.2 47,79.4 47.7,76.7 48.2,74.5 48.6,72.8 49.1,71.4 49.5,70.3 49.9,69.5 
	50.3,69.1 50.8,69.1 51.5,69.5 52.2,71.3 52.8,73.6 53.4,76.4 54,79.4 54.7,82.6 55.4,85.7 55.7,88.3 55.9,90.5 55.9,92.6 
	55.9,94.6 57.2,95.8 57.5,96.1 57.5,91.4 57.4,87.4 56.8,83.8 55.9,78.4 55.1,74.4 54.3,71 53.6,69.1 52.7,67.7 51.9,67.1 50.5,67 
	49.3,67.3 48.4,68.4 47.6,70.5 46.8,73.4 44.8,81.7 "/>
<path class="st0" d="M58.2,96.1l1.5,0.2l0.5-0.6v-3.9L60,86.8c0,0-0.4-4.1-0.4-4.1c-0.3-2.5-0.7-5-1-7.6c-0.3-2.3-0.7-4.6,0.3-6.8
	c0.3-0.8,0.9-1.5,1.5-2c0.7-0.5,1.3-0.6,2.2-0.6h1c0,0,0.9,0.4,1,0.4c1.3,0.6,2.4,1.6,3.3,2.7c1.1,1.5,1.7,3.3,2.4,5
	c0.5,1.2,0.7,2.7,1,4c0.4,2,0.7,4,0.8,6c0,0,0.1,4.8,0.1,4.8v3.6v3.3l1.1,0.6l0.5-1.4v-7.6c0,0-0.1-3.8-0.1-3.8
	c-0.1-3.3-0.6-6.5-1.4-9.7c-0.9-3.3-2.5-7-5.6-8.8c-1.4-0.8-3-1.3-4.7-1.3c-0.4,0-0.7,0-1.1,0.1c-0.9,0.2-1.7,0.7-2.3,1.4
	c-0.7,0.7-1.2,1.4-1.7,2.3c-0.8,1.6-0.9,3.4-0.7,5.2c0.1,1.3,0.3,2.7,0.6,4c0.4,2.1,0.8,4.3,1.1,6.4l0.5,4.2l0.3,4.2l-0.1,2.4
	L58.2,96.1z"/>
<polygon class="st0" points="80.3,91.2 79.4,89.9 78.9,87.3 78.9,83.7 78.7,81 78.2,78.8 77.1,77.2 76.9,77.1 76.7,77.3 76.7,79 
	76.8,80.6 77,87.7 77.1,90.8 77.1,93.5 76.7,95.5 74.8,95.8 74.8,92.6 74.8,88.7 74.8,84.3 74.8,81.2 74.8,78.8 74.8,77.1 
	74.8,76.1 75,75 75.6,74.5 76.2,74.5 77.1,74.6 77.8,75.3 78.6,76.6 79.1,77.8 79.6,79.2 80,81.1 80.2,83 80.4,87.1 80.4,89.4 "/>
</svg>
