<?xml version="1.0" encoding="iso-8859-1"?>
<!-- Generator: Adobe Illustrator 21.0.2, SVG Export Plug-In . SVG Version: 6.00 Build 0)  -->
<svg version="1.1" id="Layer_1" xmlns="http://www.w3.org/2000/svg" xmlns:xlink="http://www.w3.org/1999/xlink" x="0px" y="0px"
	 viewBox="0 0 100 100" enable-background="new 0 0 100 100" xml:space="preserve">
<g>
	<rect x="36.666" y="40" fill="#FFFFFF" width="10.669" height="10"/>
	<rect x="52.665" y="40" fill="#FFFFFF" width="10.669" height="10"/>
	<rect x="68.667" y="40" fill="#FFFFFF" width="10.666" height="10"/>
	<rect x="20.667" y="55" fill="#FFFFFF" width="10.667" height="10"/>
	<rect x="36.666" y="55" fill="#FFFFFF" width="10.669" height="10"/>
	<rect x="52.665" y="55" fill="#FFFFFF" width="10.669" height="10"/>
	<rect x="68.667" y="55" fill="#FFFFFF" width="10.666" height="10"/>
	<rect x="20.667" y="70" fill="#FFFFFF" width="10.667" height="10"/>
	<rect x="36.666" y="70" fill="#FFFFFF" width="10.669" height="10"/>
	<rect x="52.665" y="70" fill="#FFFFFF" width="10.669" height="10"/>
	<path fill="#FFFFFF" d="M79.333,20V10H63.334v10H36.666V10H20.667v10H10v70h80V20H79.333z M68.667,15h5.335v10h-5.335V15z M26,15
		h5.333v10H26V15z M84.667,85H15.334V35h69.333V85z"/>
</g>
</svg>
