<?xml version="1.0" encoding="iso-8859-1"?>
<!-- Generator: Adobe Illustrator 21.0.2, SVG Export Plug-In . SVG Version: 6.00 Build 0)  -->
<svg version="1.1" id="Layer_1" xmlns="http://www.w3.org/2000/svg" xmlns:xlink="http://www.w3.org/1999/xlink" x="0px" y="0px"
	 viewBox="0 0 100 100" enable-background="new 0 0 100 100" xml:space="preserve">
<g>
	<g>
		<path fill="#006588" d="M55.094,48.973c0,0,1.107-9.551,1.856-12.27c0.751-2.72,2.492-3.325,2.492-3.325l0.552-0.209
			c0,0,0.731-0.554,6.784-1.967c6.339-1.48,12.264,0,12.264,0s4.425,0.785,6.946,2.237c1.801,1.036,2.058,2.961,2.058,2.961
			l1.711,12.562l-0.34,15.261l-0.076,0.83l-0.201,0.851l-0.713,0.067l-0.904-0.082H57.434l-0.925,0.05l-0.79-0.239l-0.412-0.857
			l-0.213-0.911V48.973z M86.302,39.69c0-0.801-1.125-1.547-1.919-1.547H60.414c-0.795,0-1.65,0.836-1.65,1.637l-1.08,9.424
			c0,0.801,0.644,1.687,1.44,1.687h27.118c0.795,0,1.44-0.886,1.44-1.687L86.302,39.69z M80.037,36.268
			c0-0.37-0.31-0.375-0.694-0.375H66.149c-0.384,0-0.695,0.005-0.695,0.375l0,0c0,0.371,0.311,0.375,0.695,0.375h13.194
			C79.727,36.643,80.037,36.639,80.037,36.268L80.037,36.268z M59.646,56.759c-1.222,0-2.212,0.989-2.212,2.211
			c0,1.222,0.99,2.212,2.212,2.212c1.221,0,2.211-0.99,2.211-2.212C61.857,57.749,60.868,56.759,59.646,56.759z M85.506,56.759
			c-1.222,0-2.212,0.989-2.212,2.211c0,1.222,0.989,2.212,2.212,2.212c1.222,0,2.212-0.99,2.212-2.212
			C87.718,57.749,86.728,56.759,85.506,56.759z"/>
		<path fill="#006588" d="M61.093,67.25c0,0.549-1.381,1.638-1.93,1.638h-0.056c-0.549,0-1.763-1.089-1.763-1.638v-3.46
			c0-0.548,1.215-0.901,1.763-0.901h0.056c0.548,0,1.93,0.353,1.93,0.901V67.25z"/>
		<path fill="#006588" d="M88.089,67.25c0,0.549-1.156,1.638-1.705,1.638h-0.056c-0.549,0-1.988-1.089-1.988-1.638v-3.46
			c0-0.548,1.44-0.901,1.988-0.901h0.056c0.548,0,1.705,0.353,1.705,0.901V67.25z"/>
	</g>

		<line fill="none" stroke="#006588" stroke-width="1.815" stroke-linecap="round" stroke-linejoin="round" stroke-miterlimit="10" x1="84.315" y1="66.087" x2="94.863" y2="78.563"/>

		<line fill="none" stroke="#006588" stroke-width="1.815" stroke-linecap="round" stroke-linejoin="round" stroke-miterlimit="10" x1="60.497" y1="66.087" x2="51.196" y2="78.563"/>
	<polygon fill="#006588" points="88.006,74.586 57.68,74.598 55.393,77.887 90.439,77.887 	"/>
	<polygon fill="#006588" points="84.612,70.286 60.727,70.075 58.897,72.638 86.569,72.638 	"/>
	<polygon fill="#006588" points="82.776,67.039 62.661,67.214 61.665,68.888 83.801,68.888 	"/>
</g>
<g>
	<path fill="#006588" d="M14.409,78.426h-2.992c-0.462,0-0.839-0.41-0.839-0.91v-8.311c0-0.501,0.341,1.095,0.803,1.095l3.114,0.026
		c0.462,0,0.754-1.622,0.754-1.121v8.311C15.248,78.016,14.87,78.426,14.409,78.426z"/>
	<path fill="#006588" d="M41.399,78.426h-2.992c-0.462,0-0.839-0.41-0.839-0.91v-8.311c0-0.501,0.414,1.042,0.876,1.042l2.955-1.952
		c0.462,0,0.839,0.409,0.839,0.91v8.311C42.238,78.016,41.86,78.426,41.399,78.426z"/>
	<path fill="#006588" d="M42.145,73.36H10.874c-0.859,0-1.563-0.703-1.563-1.563V26c0-2.509,2.053-4.563,4.563-4.563h25.068
		c2.509,0,4.563,2.053,4.563,4.563v46.001C43.504,72.748,42.893,73.36,42.145,73.36z M15.643,64.917c-1.049,0-1.9,0.851-1.9,1.9
		c0,1.049,0.85,1.9,1.9,1.9c1.049,0,1.9-0.851,1.9-1.9C17.543,65.768,16.692,64.917,15.643,64.917z M37.172,64.917
		c-1.049,0-1.9,0.851-1.9,1.9c0,1.049,0.85,1.9,1.9,1.9c1.049,0,1.9-0.851,1.9-1.9C39.072,65.768,38.221,64.917,37.172,64.917z
		 M32.792,68.07L32.792,68.07c0-0.356-0.291-0.646-0.646-0.646H20.669c-0.356,0-0.646,0.291-0.646,0.646l0,0
		c0,0.356,0.291,0.646,0.646,0.646h11.477C32.502,68.716,32.792,68.426,32.792,68.07z M41.605,62.775v-16.03
		c0-0.424-0.347-0.771-0.771-0.771H11.982c-0.424,0-0.771,0.347-0.771,0.771v16.03c0,0.424,0.347,0.771,0.771,0.771h28.852
		C41.258,63.545,41.605,63.199,41.605,62.775z M41.605,39.187V27.036c0-0.424-0.347-0.771-0.771-0.771H11.982
		c-0.424,0-0.771,0.347-0.771,0.771v12.151c0,0.424,0.347,0.771,0.771,0.771h28.852C41.258,39.958,41.605,39.611,41.605,39.187z
		 M41.605,42.412H11.211v1.108h30.394V42.412z"/>
	<path fill="#006588" d="M6.658,54.903L6.658,54.903c-0.987,0-1.795-0.808-1.795-1.795v-5.642c0-0.987,0.808-1.795,1.795-1.795
		h1.795v7.437C8.453,54.095,7.646,54.903,6.658,54.903z"/>
	<rect x="7.46" y="45.67" fill="#006588" width="2.101" height="2.101"/>
	<path fill="#006588" d="M46.157,55.234L46.157,55.234c0.987,0,1.795-0.808,1.795-1.795v-5.642c0-0.987-0.808-1.795-1.795-1.795
		h-1.795v7.437C44.362,54.426,45.17,55.234,46.157,55.234z"/>

		<rect x="43.219" y="46.002" transform="matrix(-1 -1.224647e-16 1.224647e-16 -1 88.5399 94.1046)" fill="#006588" width="2.101" height="2.101"/>
	<rect x="25.458" y="44.945" fill="#006588" width="1.9" height="20.025"/>
</g>
</svg>
