<?xml version="1.0" encoding="iso-8859-1"?>
<!-- Generator: Adobe Illustrator 21.0.2, SVG Export Plug-In . SVG Version: 6.00 Build 0)  -->
<svg version="1.1" id="Layer_1" xmlns="http://www.w3.org/2000/svg" xmlns:xlink="http://www.w3.org/1999/xlink" x="0px" y="0px"
	 viewBox="0 0 100 100" enable-background="new 0 0 100 100" xml:space="preserve">
<g>
	<path fill="#FFFFFF" d="M33.039,90.277H28.81c-0.652,0-1.186-0.579-1.186-1.287V77.243c0-0.708,0.482,1.548,1.135,1.548
		l4.401,0.037c0.652,0,1.066-2.293,1.066-1.585v11.748C34.226,89.698,33.692,90.277,33.039,90.277z"/>
	<path fill="#FFFFFF" d="M71.19,90.277h-4.229c-0.652,0-1.186-0.579-1.186-1.287V77.243c0-0.708,0.585,1.473,1.238,1.473l4.177-2.76
		c0.652,0,1.186,0.579,1.186,1.286v11.748C72.376,89.698,71.843,90.277,71.19,90.277z"/>
	<path fill="#FFFFFF" d="M72.807,83.117H27.396c-0.859,0-1.563-0.703-1.563-1.563V14.285c0-2.509,2.053-4.563,4.563-4.563h39.208
		c2.509,0,4.563,2.053,4.563,4.563v67.472C74.167,82.505,73.555,83.117,72.807,83.117z M34.784,71.183
		c-1.483,0-2.685,1.202-2.685,2.685c0,1.483,1.202,2.685,2.685,2.685c1.483,0,2.685-1.202,2.685-2.685
		C37.469,72.385,36.267,71.183,34.784,71.183z M65.216,71.183c-1.483,0-2.685,1.202-2.685,2.685c0,1.483,1.202,2.685,2.685,2.685
		c1.483,0,2.685-1.202,2.685-2.685C67.901,72.385,66.699,71.183,65.216,71.183z M59.025,75.64L59.025,75.64
		c0-0.503-0.411-0.914-0.914-0.914H41.889c-0.503,0-0.914,0.411-0.914,0.914l0,0c0,0.503,0.411,0.914,0.914,0.914h16.223
		C58.614,76.553,59.025,76.142,59.025,75.64z M71.481,68.473V45.177c0-0.424-0.347-0.771-0.771-0.771H29.29
		c-0.424,0-0.771,0.347-0.771,0.771v23.296c0,0.424,0.347,0.771,0.771,0.771H70.71C71.134,69.244,71.481,68.897,71.481,68.473z
		 M71.481,35.132V17.318c0-0.424-0.347-0.771-0.771-0.771H29.29c-0.424,0-0.771,0.347-0.771,0.771v17.814
		c0,0.424,0.347,0.771,0.771,0.771H70.71C71.134,35.903,71.481,35.556,71.481,35.132z M71.481,39.371H28.519v1.566h42.962V39.371z"
		/>
	<path fill="#FFFFFF" d="M22.084,57.027L22.084,57.027c-1.396,0-2.537-1.142-2.537-2.538v-7.975c0-1.396,1.142-2.538,2.537-2.538
		h2.537v10.512C24.621,55.885,23.479,57.027,22.084,57.027z"/>
	<rect x="23.218" y="43.977" fill="#FFFFFF" width="2.97" height="2.97"/>
	<path fill="#FFFFFF" d="M77.916,57.495L77.916,57.495c1.395,0,2.537-1.142,2.537-2.538v-7.975c0-1.396-1.142-2.538-2.537-2.538
		h-2.538v10.512C75.379,56.353,76.521,57.495,77.916,57.495z"/>
	
		<rect x="73.764" y="44.445" transform="matrix(-1 -1.224647e-16 1.224647e-16 -1 150.4977 91.8608)" fill="#FFFFFF" width="2.97" height="2.97"/>
	<rect x="48.658" y="42.951" fill="#FFFFFF" width="2.685" height="28.306"/>
</g>
<g>
</g>
<g>
</g>
<g>
</g>
<g>
</g>
<g>
</g>
<g>
</g>
<g>
</g>
<g>
</g>
<g>
</g>
<g>
</g>
<g>
</g>
<g>
</g>
<g>
</g>
<g>
</g>
<g>
</g>
</svg>
