<?xml version="1.0" encoding="utf-8"?>
<!-- Generator: Adobe Illustrator 21.0.2, SVG Export Plug-In . SVG Version: 6.00 Build 0)  -->
<svg version="1.1" id="Layer_1" xmlns="http://www.w3.org/2000/svg" xmlns:xlink="http://www.w3.org/1999/xlink" x="0px" y="0px"
	 viewBox="0 0 100 100" style="enable-background:new 0 0 100 100;" xml:space="preserve">
<style type="text/css">
	.stc{fill:rgba(0, 0, 0, 0.4);}
</style>
<g>
	<path class="stc" d="M12.8,77c0,0-0.4-16.2,0-23.4c0.4-7.2,7-7.6,7-7.6l3.6-22c0,0,13.8-2.9,26.9-2.8C63.4,21.3,77,24.8,77,24.8
		l3,21.7c0,0-1.2,0,2,0.2c5.2,0.3,5.1,6.5,5.1,6.5s0.1,22.7,0,24.1c-0.1,1.4-1,1.5-1,1.5s-9.5,0-10.6,0c-1.1,0-0.9-1.1-0.9-1.1v-7.2
		h-49c0,0,0.1,4.3,0,6.2c-0.1,1.9-1.4,2-1.4,2h-9.9C13.2,78.8,12.8,77,12.8,77z M21.4,50c-2.1,0-3.8,1.7-3.8,3.8s1.7,3.8,3.8,3.8
		s3.8-1.7,3.8-3.8S23.5,50,21.4,50z M79.1,50c-2.1,0-3.8,1.7-3.8,3.8s1.7,3.8,3.8,3.8c2.1,0,3.8-1.7,3.8-3.8S81.2,50,79.1,50z
		 M67.2,63.5V61c0-0.3-0.3-0.6-0.6-0.6H33.3c-0.3,0-0.6,0.3-0.6,0.6v2.4c0,0.3,0.3,0.6,0.6,0.6h33.3C66.9,64,67.2,63.8,67.2,63.5z
		 M25.8,46.5c0,0,1.4,0.2,2.6,1.1c1.2,0.9,42.6,0,42.6,0s1.6-1.1,3.4-1.1c1.8,0,2.4,0,2.4,0L74.2,28c0,0-21-2.9-24.3-2.9
		c-3.4,0-24.2,1.7-24.2,1.7l-3,19.5L25.8,46.5z"/>
	<path class="stc" d="M88.7,47.1h-9.1c-1,0-1.8-0.8-1.8-1.8v-1.9c0-1,0.8-1.8,1.8-1.8h9.1c1,0,1.8,0.8,1.8,1.8v1.9
		C90.5,46.2,89.7,47.1,88.7,47.1z"/>
	<path class="stc" d="M20.9,47.1H11c-0.8,0-1.5-0.7-1.5-1.5V43c0-0.8,0.7-1.5,1.5-1.5h9.9c0.8,0,1.5,0.7,1.5,1.5v2.6
		C22.3,46.4,21.7,47.1,20.9,47.1z"/>
</g>
</svg>
