<?xml version="1.0" encoding="iso-8859-1"?>
<!-- Generator: Adobe Illustrator 21.0.2, SVG Export Plug-In . SVG Version: 6.00 Build 0)  -->
<svg version="1.1" id="Layer_1" xmlns="http://www.w3.org/2000/svg" xmlns:xlink="http://www.w3.org/1999/xlink" x="0px" y="0px"
	 viewBox="0 0 100 100" enable-background="new 0 0 100 100" xml:space="preserve">
<path fill="rgba(0, 0, 0, 0.4)" d="M88.914,49.688c0,21.492-17.422,38.914-38.914,38.914S11.086,71.18,11.086,49.688S28.508,10.774,50,10.774
	S88.914,28.197,88.914,49.688z M35.125,72.82l9.651,0V56.306h11.245c0,0,5.117,0.278,7.969-1.682
	c5.87-4.035,6.552-10.625,6.552-10.625s1.151-6.464-2.036-11.953s-10.094-5.49-10.094-5.49H35.125V72.82z"/>
<path fill="rgba(0, 0, 0, 0.4)" d="M44.721,34.325v13.979h11.322c0,0,2.723-0.232,4.316-3.42s0.896-6.01,0.896-6.01s-0.35-3.061-3.331-4.078
	c-1.625-0.554-2.739-0.471-2.739-0.471H44.721z"/>
</svg>
