<?xml version="1.0" encoding="iso-8859-1"?>
<!-- Generator: Adobe Illustrator 21.0.2, SVG Export Plug-In . SVG Version: 6.00 Build 0)  -->
<svg version="1.1" id="Layer_1" xmlns="http://www.w3.org/2000/svg" xmlns:xlink="http://www.w3.org/1999/xlink" x="0px" y="0px"
	 viewBox="0 0 100 100" enable-background="new 0 0 100 100" xml:space="preserve">
<g>
	<circle fill="#FFFFFF" cx="27.899" cy="79.404" r="2.198"/>
	<polygon fill="#FFFFFF" points="11.419,59.244 26.029,80.548 28.424,80.695 29.911,80.289 44.378,59.243 26.879,59.006 	"/>
	<path fill="#FFFFFF" d="M47.787,48.105c0,10.984-8.905,19.888-19.888,19.888S8.011,59.089,8.011,48.105s8.905-19.888,19.888-19.888
		S47.787,37.122,47.787,48.105z M27.899,40.999c-3.926,0-7.108,3.182-7.108,7.108s3.182,7.108,7.108,7.108s7.108-3.182,7.108-7.108
		S31.824,40.999,27.899,40.999z"/>
	<circle fill="#FFFFFF" cx="72.095" cy="50.656" r="1.649"/>
	<polygon fill="#FFFFFF" points="59.735,35.536 70.692,51.514 72.489,51.625 73.603,51.32 84.454,35.535 71.33,35.357 	"/>
	<path fill="#FFFFFF" d="M87.011,27.182c0,8.238-6.678,14.916-14.916,14.916S57.179,35.42,57.179,27.182s6.678-14.916,14.916-14.916
		S87.011,18.945,87.011,27.182z M72.095,21.852c-2.944,0-5.331,2.387-5.331,5.331s2.387,5.331,5.331,5.331s5.331-2.387,5.331-5.331
		S75.038,21.852,72.095,21.852z"/>
	<path fill="none" stroke="#FFFFFF" stroke-width="2" stroke-linecap="round" stroke-miterlimit="10" d="M27.899,87.557
		c13.43-1.601,26.114-2.728,38.979-7.224c3.599-1.258,8.522-3.609,11.601-5.928c3.225-2.429,6.757-6.629,2.677-9.052
		c-1.674-0.994-4.618-1.382-6.474-1.656c-2.133-0.314-5.135-0.664-7.286-0.903c-2.208-0.246-4.577-0.49-4.694-1.967
		c-0.096-1.211,1.222-1.926,1.753-2.295c1.057-0.733,2.198-1.226,3.559-1.709c1.539-0.546,2.297-0.73,4.08-1.255"/>
	<path fill="#FFFFFF" d="M80.323,71.351c-0.274,0.268-0.698,0.643-1.002,0.876c-1.362,1.047-2.835,1.893-4.397,2.602
		c-3.621,1.643-7.341,3.101-11.161,4.223c-4.725,1.388-9.555,2.108-14.43,2.723c-2.975,0.375-5.956,0.703-8.94,0.998
		c-2.616,0.258-5.235,0.491-7.855,0.707c-2.056,0.169-4.582,0.345-6.584,0.901c-1.375,0.382-2.096,1.038-2.235,2.522
		c-0.041,0.442,0.025,0.926,0.329,1.25c0.172,0.183,0.404,0.298,0.642,0.38c0.768,0.263,4.655,0.068,5.406-0.372
		c0.36-0.211,0.226-0.888,0.226-0.888l12.892-1.584l6.835-1.212l10.933-2.303l6.424-2.029l3.784-1.569l5.159-2.731
		c0,0,2.624-1.825,2.624-1.825c1.655-1.561,3.296-3.006,3.943-5.292c-0.163,0.576-1.178,1.007-1.6,1.423
		C80.96,70.5,80.691,70.993,80.323,71.351z"/>
</g>
</svg>
