<?xml version="1.0" encoding="iso-8859-1"?>
<!-- Generator: Adobe Illustrator 21.0.2, SVG Export Plug-In . SVG Version: 6.00 Build 0)  -->
<svg version="1.1" id="Layer_1" xmlns="http://www.w3.org/2000/svg" xmlns:xlink="http://www.w3.org/1999/xlink" x="0px" y="0px"
	 viewBox="0 0 100 100" enable-background="new 0 0 100 100" xml:space="preserve">
<g>
	<path fill="rgba(0, 0, 0, 0.4)" d="M20.514,40.826c0,0,1.82-15.702,3.052-20.173c1.234-4.472,4.097-5.466,4.097-5.466l0.908-0.344
		c0,0,1.201-0.911,11.153-3.234c10.421-2.433,20.162,0,20.162,0s7.274,1.291,11.419,3.678c2.961,1.704,3.384,4.868,3.384,4.868
		l2.813,20.652l-0.559,25.09l-0.124,1.364l-0.33,1.399l-1.172,0.111l-1.486-0.135H24.36l-1.521,0.082l-1.299-0.393l-0.677-1.409
		l-0.35-1.498V40.826z M71.821,25.564c0-1.317-1.849-2.543-3.156-2.543H29.259c-1.308,0-2.713,1.374-2.713,2.691l-1.776,15.494
		c0,1.317,1.06,2.774,2.368,2.774h44.583c1.308,0,2.368-1.457,2.368-2.774L71.821,25.564z M61.52,19.939
		c0-0.609-0.509-0.616-1.14-0.616H38.688c-0.632,0-1.143,0.007-1.143,0.616l0,0c0,0.609,0.51,0.616,1.143,0.616H60.38
		C61.01,20.555,61.52,20.548,61.52,19.939L61.52,19.939z M27.998,53.626c-2.01,0-3.637,1.627-3.637,3.635
		c0,2.01,1.628,3.637,3.637,3.637c2.008,0,3.635-1.628,3.635-3.637C31.632,55.253,30.006,53.626,27.998,53.626z M70.511,53.626
		c-2.01,0-3.636,1.627-3.636,3.635c0,2.01,1.626,3.637,3.636,3.637c2.009,0,3.637-1.628,3.637-3.637
		C74.148,55.253,72.52,53.626,70.511,53.626z"/>
	<path fill="rgba(0, 0, 0, 0.4)" d="M30.376,70.874c0,0.903-2.271,2.693-3.172,2.693h-0.093c-0.902,0-2.899-1.79-2.899-2.693v-5.689
		c0-0.901,1.997-1.481,2.899-1.481h0.093c0.902,0,3.172,0.58,3.172,1.481V70.874z"/>
	<path fill="rgba(0, 0, 0, 0.4)" d="M74.758,70.874c0,0.903-1.901,2.693-2.803,2.693h-0.093c-0.902,0-3.269-1.79-3.269-2.693v-5.689
		c0-0.901,2.367-1.481,3.269-1.481h0.093c0.902,0,2.803,0.58,2.803,1.481V70.874z"/>
</g>
<line fill="none" stroke="rgba(0, 0, 0, 0.4)" stroke-width="3" stroke-linecap="round" stroke-miterlimit="10" x1="68.553" y1="68.962" x2="85.895" y2="89.472"/>
<line fill="none" stroke="rgba(0, 0, 0, 0.4)" stroke-width="3" stroke-linecap="round" stroke-miterlimit="10" x1="30.376" y1="68.962" x2="15.086" y2="89.472"/>
<polygon fill="rgba(0, 0, 0, 0.4)" points="75.081,82.934 25.223,82.954 21.463,88.361 79.08,88.361 "/>
<polygon fill="rgba(0, 0, 0, 0.4)" points="69.5,75.865 30.233,75.519 27.224,79.731 72.717,79.731 "/>
<polygon fill="rgba(0, 0, 0, 0.4)" points="66.482,70.527 33.412,70.815 31.774,73.567 68.167,73.567 "/>
</svg>
