<?xml version="1.0" encoding="iso-8859-1"?>
<!-- Generator: Adobe Illustrator 21.0.2, SVG Export Plug-In . SVG Version: 6.00 Build 0)  -->
<svg version="1.1" id="Layer_1" xmlns="http://www.w3.org/2000/svg" xmlns:xlink="http://www.w3.org/1999/xlink" x="0px" y="0px"
	 viewBox="0 0 100 100" enable-background="new 0 0 100 100" xml:space="preserve">
<g>
	<path fill="rgba(0, 0, 0, 0.4)" d="M21.526,48.361l8.249-16.53l0.261-0.499l19.736-6.816c0,0,1.377-0.201,1.409-0.206
		c1.429-0.209,2.857,0.281,4.229,0.609c1.099,0.263,2.247,0.427,3.229,0.985c1.259,0.716,2.104,2.086,2.237,3.521
		c0.164,1.773-0.538,3.551-0.976,5.236c-0.014,0.054-0.028,0.107-0.041,0.161c0,0-5.645,21.948-5.645,21.948l12.184,10.162
		l0.903,1.092l0.332,1.092l0.57,3.943c0,0,1.853,14.677,1.853,14.677c-0.089,0.304-0.128,0.637-0.276,0.919
		c-0.148,0.281-0.347,0.534-0.585,0.744c-0.203,0.18-0.433,0.327-0.673,0.455c-0.622,0.332-1.312,0.536-2.015,0.594
		c-0.81,0.068-1.647-0.072-2.376-0.435c-0.661-0.329-1.373-0.88-1.485-1.66c0,0-2.327-16.103-2.327-16.103s-0.855-0.997-0.855-0.997
		c-0.259-0.21-0.517-0.42-0.776-0.631c-0.679-0.552-1.359-1.104-2.038-1.656c-0.957-0.777-1.914-1.555-2.871-2.332
		c-1.091-0.886-2.182-1.773-3.273-2.659c-1.082-0.879-2.163-1.757-3.245-2.636c-0.929-0.755-1.858-1.509-2.786-2.264
		c-0.633-0.514-1.265-1.028-1.898-1.542c-0.634-0.515-1.192-1.125-1.541-1.879c-0.391-0.845-0.428-1.81-0.362-2.738
		c0.096-1.368,0.659-2.688,1.072-3.988l4.061-16.197l-0.594-0.095L34.62,36.201c0,0-8.217,16.055-8.218,16.055
		c-0.373,0.294-0.742,0.729-1.238,0.74c-0.806,0.017-1.572-0.013-2.306-0.375c-0.452-0.223-0.91-0.452-1.277-0.797
		c-0.368-0.345-0.644-0.803-0.743-1.301c-0.114-0.571,0.064-1.021,0.333-1.513C21.289,48.794,21.407,48.577,21.526,48.361z"/>
	<path fill="rgba(0, 0, 0, 0.4)" d="M42.473,59.586l6.428,5.257l-2.153,9.247l-0.475,0.855c0,0-4.275,4.845-4.275,4.845
		c-0.189,0.201-0.378,0.402-0.568,0.602c-0.49,0.52-0.98,1.04-1.471,1.561c-0.676,0.717-1.352,1.435-2.028,2.152
		c-0.746,0.792-1.493,1.584-2.239,2.376c-0.702,0.744-1.403,1.489-2.105,2.233c-0.541,0.574-1.083,1.149-1.624,1.723
		c-0.143,0.152-0.286,0.303-0.428,0.455c-0.101,0.107-0.192,0.227-0.301,0.325c-0.224,0.202-0.517,0.311-0.8,0.4
		c-0.344,0.108-0.698,0.196-1.058,0.206c-0.341,0.01-0.68-0.051-1.006-0.149c-0.292-0.087-0.637-0.182-0.864-0.395
		c-0.489-0.459-0.95-0.945-1.415-1.428c-0.217-0.225-0.439-0.441-0.663-0.659c-0.189-0.184-0.393-0.404-0.427-0.678
		c-0.018-0.145-0.036-0.291-0.055-0.436c-0.015-0.118-0.029-0.235-0.032-0.354c-0.007-0.366,0.105-0.72,0.257-1.049
		c0.078-0.168,0.166-0.331,0.257-0.492c0.057-0.1,0.104-0.26,0.181-0.345c0,0,3.135-3.341,3.135-3.341l10.371-11.194l0.38-0.728
		l1.393-5.352l1.172-5.637H42.473z"/>
	<path fill="rgba(0, 0, 0, 0.4)" d="M61.758,33.936l-2.312,9.342l0.127,0.697c0,0,0.665,0.918,0.665,0.918c0.288,0.238,0.576,0.476,0.864,0.715
		c0.737,0.61,1.473,1.219,2.21,1.829c0.996,0.824,1.992,1.649,2.988,2.473c1.066,0.882,2.132,1.765,3.199,2.647
		c0.947,0.784,1.894,1.567,2.841,2.351c0.638,0.528,1.277,1.056,1.915,1.585c0.108,0.089,0.215,0.181,0.325,0.269
		c0.44,0.35,1.078,0.371,1.615,0.37c0.167,0,0.337-0.004,0.497-0.05c0.395-0.113,0.759-0.465,1.052-0.742
		c0.333-0.315,0.626-0.671,0.871-1.058c0.204-0.322,0.423-0.681,0.506-1.056c0.195-0.885,0.042-1.817-0.705-2.427
		c0,0-3.103-2.533-3.103-2.533l-9.975-8.297L61.758,33.936z"/>
	<circle fill="rgba(0, 0, 0, 0.4)" cx="57.467" cy="15.776" r="7.6"/>
</g>
</svg>
