<?xml version="1.0" encoding="iso-8859-1"?>
<!-- Generator: Adobe Illustrator 21.0.2, SVG Export Plug-In . SVG Version: 6.00 Build 0)  -->
<svg version="1.1" id="Layer_1" xmlns="http://www.w3.org/2000/svg" xmlns:xlink="http://www.w3.org/1999/xlink" x="0px" y="0px"
	 viewBox="0 0 100 100" enable-background="new 0 0 100 100" xml:space="preserve">
<g>
	<rect x="36.583" y="39.938" fill="#FFFFFF" width="10.736" height="10.063"/>
	<rect x="52.681" y="39.938" fill="#FFFFFF" width="10.736" height="10.063"/>
	<rect x="68.783" y="39.938" fill="#FFFFFF" width="10.732" height="10.063"/>
	<rect x="20.483" y="55.031" fill="#FFFFFF" width="10.733" height="10.063"/>
	<rect x="36.583" y="55.031" fill="#FFFFFF" width="10.736" height="10.063"/>
	<rect x="52.681" y="55.031" fill="#FFFFFF" width="10.736" height="10.063"/>
	<rect x="68.783" y="55.031" fill="#FFFFFF" width="10.732" height="10.063"/>
	<rect x="20.483" y="70.125" fill="#FFFFFF" width="10.733" height="10.063"/>
	<rect x="36.583" y="70.125" fill="#FFFFFF" width="10.736" height="10.063"/>
	<rect x="52.681" y="70.125" fill="#FFFFFF" width="10.736" height="10.063"/>
	<path fill="#FFFFFF" d="M79.516,19.813V9.75H63.417v10.063H36.583V9.75H20.483v10.063H9.75V90.25h80.5V19.813H79.516z
		 M68.783,14.781h5.368v10.063h-5.368V14.781z M25.85,14.781h5.366v10.063H25.85V14.781z M84.884,85.219H15.117V34.906h69.767
		V85.219z"/>
</g>
</svg>
