<?xml version="1.0" encoding="iso-8859-1"?>
<!-- Generator: Adobe Illustrator 21.0.2, SVG Export Plug-In . SVG Version: 6.00 Build 0)  -->
<svg version="1.1" id="Layer_1" xmlns="http://www.w3.org/2000/svg" xmlns:xlink="http://www.w3.org/1999/xlink" x="0px" y="0px"
	 viewBox="0 0 100 100" enable-background="new 0 0 100 100" xml:space="preserve">
<g>
	<rect x="68.783" y="39.938" fill="rgba(0, 0, 0, 0.4)" width="10.733" height="10.063"/>
	<rect x="68.783" y="70.125" fill="rgba(0, 0, 0, 0.4)" width="10.733" height="10.063"/>
	<rect x="68.783" y="55.031" fill="rgba(0, 0, 0, 0.4)" width="10.733" height="10.063"/>
	<path fill="rgba(0, 0, 0, 0.4)" d="M79.517,19.813V9.75h-16.1v10.063H36.583V9.75h-16.1v10.063H9.75V90.25h80.5V19.813H79.517z M68.783,14.781
		h5.368v10.063h-5.368V14.781z M25.85,14.781h5.367v10.063H25.85V14.781z M84.885,85.219H15.117V34.906h69.768V85.219z"/>
	<polygon fill="rgba(0, 0, 0, 0.4)" points="51.638,75.156 40.764,67.159 29.797,75.03 34.043,62.216 23.169,54.219 36.667,54.297
		40.912,41.484 45.009,54.345 58.507,54.424 47.541,62.294 	"/>
</g>
</svg>
