<?xml version="1.0" encoding="iso-8859-1"?>
<!-- Generator: Adobe Illustrator 21.0.2, SVG Export Plug-In . SVG Version: 6.00 Build 0)  -->
<svg version="1.1" id="Layer_1" xmlns="http://www.w3.org/2000/svg" xmlns:xlink="http://www.w3.org/1999/xlink" x="0px" y="0px"
	 viewBox="0 0 100 100" enable-background="new 0 0 100 100" xml:space="preserve">
<path fill="#FFFFFF" d="M49.081,28.265c0.246-0.99,0.474-1.807,0.64-2.559c-0.158-1.107-0.32-2.215-0.541-3.313
	c-0.246-1.348-0.404-2.278-0.64-3.183c-0.394-1.723-2.362-0.118-5.166,2.559c-3.674,3.544-8.315,5.685-13.433,6.989
	c-5.119,1.329-10.078,1.656-14.667,0.246c-3.461-1.058-5.813-1.575-5.585,0.214c0.116,0.923,0.264,1.87,0.51,3.231
	c4.616,25.583,17.079,44.1,27.858,41.319c3.858-0.984,6.94-4.528,9.144-9.893c0-0.055,0-0.148-0.005-0.246
	C45.464,53.416,46.177,40.846,49.081,28.265 M25.229,45.472c-1.84,1.121-3.938,1.107-5.562,0.142
	c-1.056-0.615-0.726-1.093,0.426-1.452c1.132-0.367,2.355-1.28,3.698-2.097c1.359-0.819,2.682-1.447,3.584-2.333
	c0.931-0.886,1.473-0.951,1.232,0.443C28.311,42.319,27.114,44.349,25.229,45.472z M43.49,61.764
	c-2.528-1.034-5.268-0.977-7.648-0.343c-2.427,0.633-4.94,1.907-6.889,4.098c-0.74,0.867-1.134,0.571-0.74-0.708
	c1.181-3.957,3.79-7.297,6.776-8.072c2.969-0.763,6.53,0.984,8.974,4.036C44.725,61.758,44.456,62.185,43.49,61.764z M45.094,39.07
	c-1.132,1.684-3.018,2.73-5.143,2.602c-2.043-0.118-3.864-1.348-4.892-3.143c-0.67-1.195-0.153-1.385,0.976-1.035
	c1.155,0.369,2.568,0.271,4.073,0.369c1.536,0.093,2.92,0.295,4.101,0.093C45.39,37.715,45.852,37.963,45.094,39.07z M84.691,37.956
	c-4.627,1.072-9.548,0.399-14.569-1.274c-5.04-1.679-9.613-4.141-13.092-7.931c-2.658-2.892-4.548-4.62-5.036-2.925
	c-0.255,0.895-0.501,1.8-0.796,3.129c-5.897,25.23-2.028,48.554,8.589,52.098c10.596,3.544,23.954-14.077,29.835-39.313
	c0.316-1.324,0.489-2.259,0.68-3.182C90.597,36.78,88.235,37.124,84.691,37.956z M55.061,43.303
	c1.673-0.851,3.728-0.715,5.513,0.545c1.826,1.252,2.937,3.366,3.15,5.516c0.141,1.413-0.394,1.325-1.255,0.36
	c-0.856-0.94-2.182-1.659-3.47-2.572c-1.324-0.923-2.471-1.907-3.617-2.35C54.274,44.354,53.979,43.862,55.061,43.303z M71.14,67.96
	c-2.563,2.855-6.209,4.356-9.134,3.41c-2.909-0.974-5.37-4.493-6.355-8.548c-0.295-1.302,0.098-1.556,0.787-0.67
	c1.87,2.363,4.301,3.811,6.678,4.598c2.362,0.791,5.036,1.051,7.625,0.181C71.783,66.582,71.993,67.058,71.14,67.96z M79.179,52.69
	c-1.181-0.308-2.575-0.179-4.108-0.184c-1.503-0.025-2.897-0.221-4.074,0.058c-1.18,0.276-1.661,0.04-0.942-1.092
	c1.132-1.717,2.98-2.837,5.089-2.809c2.067,0.033,3.895,1.209,4.98,2.981C80.836,52.785,80.36,52.997,79.179,52.69z"/>
</svg>
