<?xml version="1.0" encoding="iso-8859-1"?>
<!-- Generator: Adobe Illustrator 21.0.2, SVG Export Plug-In . SVG Version: 6.00 Build 0)  -->
<svg version="1.1" id="Layer_1" xmlns="http://www.w3.org/2000/svg" xmlns:xlink="http://www.w3.org/1999/xlink" x="0px" y="0px"
	 viewBox="0 0 100 100" enable-background="new 0 0 100 100" xml:space="preserve">
<g>
	<g>
		<g>
			<path fill="#FFFFFF" d="M11.147,71.193c8.953-0.377,17.905-0.755,26.858-1.132c1.895-0.08,3.277-1.485,3.375-3.375
				c0.174-3.348,0.348-6.695,0.522-10.043c0.043-0.823,0.317-2.066,0.162-2.86c-0.291-1.489,0.281-0.252-0.523-0.131
				c3.056-0.458,4.348,0.527,6.79,1.566c0.587,0.25,1.178,0.487,1.773,0.72c1.976,0.775-1.292-1.003,0.301,0.207
				c0.626,0.475,1.179,1.136,1.905,1.465c1.671,0.758-0.286-0.73,0.188-0.124c1.839,2.356,3.644,5.148,5.107,7.758
				c0.366,0.653,0.476-0.081,0.231,1.207c-0.22,1.156-0.724,2.319-1.076,3.444c-2,6.402-4,12.804-6,19.206
				c-1.298,4.156,5.216,5.934,6.509,1.794c2.311-7.398,4.934-14.763,6.95-22.245c0.786-2.917,0.291-5.133-1.343-7.662
				c-2.149-3.325-3.962-6.887-7.158-9.208c-4.01-2.912-12.202-7.385-17.698-3.914c-4.615,2.915-3.148,14.224-3.387,18.817
				c1.125-1.125,2.25-2.25,3.375-3.375c-8.953,0.377-17.905,0.755-26.858,1.132C6.819,64.625,6.796,71.376,11.147,71.193
				L11.147,71.193z"/>
		</g>
	</g>
	<g>
		<g>
			<path fill="#FFFFFF" d="M47.616,50.654c4.853-6.837,9.706-13.675,14.559-20.512c2.207-3.11-2.785-6.971-5.301-4.09
				c-3.761,4.306-7.46,8.679-10.98,13.184c-1.872,2.396-3.398,4.294-5.788,6.175c-1.969,1.55-3.983,2.966-3.364,5.81
				c0.245,1.125,1.271,2.067,2.357,2.357c1.137,0.304,2.206,0.094,3.313-0.231c0.646-0.19,2.861-1.055,2.289-1.022
				c4.317-0.253,4.347-7.005,0-6.75c-0.825,0.048-1.425,0.297-2.195,0.546c-0.694,0.224-2.693,0.66-1.613,0.948
				c0.786,0.786,1.571,1.571,2.357,2.357c-0.016-0.072-0.031-0.143-0.047-0.215c-0.113,0.867-0.227,1.734-0.34,2.601
				c0.528-1.011,3.483-2.578,4.708-3.795c1.894-1.882,3.352-4.363,5.033-6.447c2.938-3.643,5.964-7.219,9.042-10.745
				c-1.767-1.363-3.534-2.727-5.301-4.09c-4.853,6.837-9.706,13.675-14.559,20.512C39.268,50.796,45.119,54.172,47.616,50.654z"/>
		</g>
	</g>
	<g>
		<g>
			<path fill="#FFFFFF" d="M28.572,42.794c2.631-2.168,5.261-4.336,7.892-6.504c1.93-1.591,3.86-3.181,5.791-4.772
				c0.983-0.81,3.432-2.129,3.993-3.291c0.468-0.97-1.389,0.724-1.503,0.586c0.144,0.176,1.644,0,1.875,0c2.306,0,4.612,0,6.918,0
				c3.624,0,7.248,0,10.872,0c-1-1-2-2-3-3c0,5.728,0,11.456,0,17.183c0,1.622,1.374,3,3,3c5.456,0,10.913,0,16.369,0
				c3.861,0,3.867-6,0-6c-5.456,0-10.913,0-16.369,0c1,1,2,2,3,3c0-5.728,0-11.456,0-17.183c0-1.622-1.374-3-3-3
				c-3.785,0-7.571,0-11.356,0c-3.26,0-7.876-0.904-10.734,0.912c-6.406,4.071-12.124,9.992-17.989,14.825
				C21.348,41.009,25.614,45.232,28.572,42.794L28.572,42.794z"/>
		</g>
	</g>
	<path fill="#FFFFFF" d="M78.354,17.928c-1.01,3.706-4.806,6.206-8.495,5.585c-3.683-0.62-5.847-4.131-4.843-7.832
		c1.01-3.706,4.81-6.207,8.496-5.586C77.189,10.715,79.362,14.223,78.354,17.928z"/>
	<g>
		<g>
			<path fill="#FFFFFF" d="M41.587,67.383c1.194-2.435,1.808-4.923,2.478-7.533c0.209-0.817,0.458-1.634,0.631-2.459
				c0.307-1.469-0.426,0.624,0.142-0.476c0.153-0.297,0.291-0.617,0.472-0.899c-0.688,1.07-0.349,0.411,0.101,0.12
				c0.634-0.409,1.2-0.995,1.782-1.477c3.719-3.083-1.612-8.363-5.303-5.303c-2.516,2.085-3.868,3.865-4.686,7.057
				c-0.356,1.386-0.712,2.772-1.067,4.159c-0.146,0.572-0.272,1.152-0.456,1.713c-0.108,0.331-0.246,0.66-0.38,0.981
				c-0.138,0.353-0.093,0.243,0.135-0.329c-0.108,0.221-0.216,0.441-0.324,0.662C32.994,67.915,39.46,71.721,41.587,67.383
				L41.587,67.383z"/>
		</g>
	</g>
	<g>
		<g>
			<path fill="#FFFFFF" d="M61.912,61.154c-1.909-1.489-3.795-2.894-5.436-4.684c-1.637-1.785-3.175-3.66-4.827-5.431
				c-3.3-3.536-8.595,1.776-5.303,5.303c1.653,1.771,3.191,3.645,4.827,5.431c1.641,1.79,3.527,3.195,5.436,4.684
				c1.595,1.245,3.748,1.556,5.303,0C63.208,65.162,63.518,62.407,61.912,61.154L61.912,61.154z"/>
		</g>
	</g>
	<path fill="#FFFFFF" d="M86.173,80.65c-0.058,1.134-0.103,1.443-0.323,2.486l0.976,0.611c0.646-1.046,0.996-2.319,0.996-3.664
		c0-0.665-0.089-1.036-0.282-1.598L86.173,80.65 M83.39,85.757l-1.295,1.763c1.604-0.491,3.041-1.397,4.088-2.747l-0.91-0.544
		L83.39,85.757z M82.463,74.966l-0.928,1.768c1.031,1.134,1.443,1.752,1.917,3.092l1.821,0.321l1.233-2.197
		c-0.333-0.85-0.464-1.156-1.233-2.247C84.235,75.29,83.651,75.094,82.463,74.966 M85.081,74.157
		c-1.361-1.237-3.03-1.929-4.886-2.061v0.438c1.058,0.49,1.312,0.665,2.223,1.314c1.103,0.103,1.385,0.201,2.532,0.515
		L85.081,74.157z M78.134,77.527c-0.824,0.959-1.134,1.474-1.68,2.711c0.457,1.067,0.588,1.309,1.36,2.341
		c1.034,0.132,1.453,0.189,1.866,0.189c0.278,0,0.824-0.057,1.436-0.067c0.656-0.917,0.831-1.211,1.347-2.19
		c-0.495-1.397-0.821-2.025-1.532-2.953c-0.91-0.091-1.299-0.091-1.69-0.091C78.986,77.467,78.443,77.527,78.134,77.527
		 M77.618,83.562l-1.223,1.515c0.398,0.799,0.605,1.139,1.532,2.139c0.797,0.134,1.134,0.237,1.573,0.237
		c0.488,0,0.797-0.103,1.312-0.206c0.828-1.001,1.031-1.311,1.443-1.958c-0.412-0.721-0.515-0.928-1.072-1.606
		c-0.474,0.06-1.165,0.06-1.484,0.06C79.178,83.742,78.725,83.742,77.618,83.562 M79.044,72.105c-1.426,0-3.106,0.505-4.916,1.845
		l0.254,0.412l2.914-0.412c0.656-0.63,0.852-0.752,1.663-1.177L79.044,72.105z M74.011,75.496l-1.34,2.165l0.928,2.486l1.752-0.177
		l1.958-3.236l-0.464-1.546L74.011,75.496z M73.392,84.046l-0.824,0.302c0.9,1.409,2.267,2.501,4.15,3.171
		c-1.233-1.613-1.233-1.613-1.471-2.335L73.392,84.046z M72.757,80.882l-0.969-2.443c-0.447,0.149-0.56,0.252-0.56,1.464
		c0,1.22,0.24,2.319,0.632,3.427l0.897-0.319V80.882z M70.17,80.207c0-5.123,4.253-9.202,9.393-9.202c5.064,0,9.29,4.023,9.29,9.027
		c0,5.045-4.226,9.07-9.352,9.07C74.32,89.102,70.17,85.077,70.17,80.207"/>
</g>
</svg>
