<?xml version="1.0" encoding="iso-8859-1"?>
<!-- Generator: Adobe Illustrator 21.0.2, SVG Export Plug-In . SVG Version: 6.00 Build 0)  -->
<svg version="1.1" id="Layer_1" xmlns="http://www.w3.org/2000/svg" xmlns:xlink="http://www.w3.org/1999/xlink" x="0px" y="0px"
	 viewBox="0 0 100 100" enable-background="new 0 0 100 100" xml:space="preserve">
<g>
	<rect x="68.2" y="40.25" fill="rgba(0, 0, 0, 0.4)" width="10.4" height="9.75"/>
	<rect x="68.2" y="69.5" fill="rgba(0, 0, 0, 0.4)" width="10.4" height="9.75"/>
	<rect x="68.2" y="54.875" fill="rgba(0, 0, 0, 0.4)" width="10.4" height="9.75"/>
	<path fill="rgba(0, 0, 0, 0.4)" d="M78.6,20.75V11H63v9.75H37V11H21.4v9.75H11V89h78V20.75H78.6z M68.2,15.875h5.201v9.75H68.2V15.875z
		 M26.6,15.875h5.201v9.75H26.6V15.875z M83.801,84.125H16.2v-48.75h67.601V84.125z"/>
	<g>
		<path fill="rgba(0, 0, 0, 0.4)" d="M21.722,63.577l4.205-0.409c0.253,1.411,0.767,2.448,1.54,3.11c0.774,0.661,1.818,0.992,3.132,0.992
			c1.392,0,2.44-0.294,3.146-0.883s1.059-1.277,1.059-2.066c0-0.506-0.148-0.937-0.445-1.292c-0.297-0.354-0.815-0.664-1.555-0.927
			c-0.506-0.175-1.66-0.486-3.46-0.935c-2.316-0.574-3.942-1.279-4.876-2.117c-1.314-1.177-1.971-2.613-1.971-4.307
			c0-1.09,0.309-2.109,0.927-3.059c0.618-0.949,1.508-1.671,2.672-2.168c1.163-0.497,2.567-0.745,4.212-0.745
			c2.686,0,4.708,0.589,6.066,1.767c1.358,1.177,2.071,2.75,2.139,4.715l-4.322,0.19c-0.185-1.1-0.582-1.891-1.19-2.373
			c-0.608-0.481-1.521-0.723-2.737-0.723c-1.255,0-2.239,0.258-2.949,0.774c-0.458,0.331-0.686,0.773-0.686,1.328
			c0,0.506,0.214,0.939,0.643,1.3c0.545,0.457,1.869,0.934,3.971,1.431c2.103,0.496,3.657,1.01,4.665,1.54
			c1.008,0.53,1.796,1.256,2.365,2.176c0.569,0.919,0.854,2.056,0.854,3.408c0,1.227-0.341,2.375-1.022,3.446
			c-0.681,1.07-1.645,1.866-2.891,2.387s-2.798,0.781-4.657,0.781c-2.706,0-4.784-0.626-6.234-1.876
			C22.87,67.794,22.004,65.972,21.722,63.577z"/>
		<path fill="rgba(0, 0, 0, 0.4)" d="M42.73,49.138h4.322V60.73c0,1.839,0.053,3.031,0.161,3.576c0.185,0.876,0.625,1.58,1.321,2.11
			c0.695,0.53,1.647,0.795,2.854,0.795c1.227,0,2.15-0.25,2.773-0.752c0.623-0.501,0.998-1.116,1.124-1.847
			c0.126-0.729,0.19-1.941,0.19-3.635v-11.84h4.32V60.38c0,2.569-0.116,4.385-0.35,5.445c-0.234,1.062-0.664,1.956-1.292,2.687
			c-0.628,0.729-1.468,1.312-2.519,1.744c-1.051,0.434-2.424,0.65-4.117,0.65c-2.044,0-3.594-0.236-4.65-0.708
			c-1.056-0.473-1.891-1.086-2.504-1.84s-1.017-1.545-1.212-2.372c-0.282-1.227-0.423-3.037-0.423-5.432V49.138z"/>
	</g>
</g>
</svg>
