<?xml version="1.0" encoding="iso-8859-1"?>
<!-- Generator: Adobe Illustrator 21.0.2, SVG Export Plug-In . SVG Version: 6.00 Build 0)  -->
<svg version="1.1" id="Layer_1" xmlns="http://www.w3.org/2000/svg" xmlns:xlink="http://www.w3.org/1999/xlink" x="0px" y="0px"
	 viewBox="0 0 100 100" enable-background="new 0 0 100 100" xml:space="preserve">
<path fill="rgba(0, 0, 0, 0.4)" d="M11.029,48.641l4.616-15.678c0.885-2.764,3.569-4.948,7.481-4.948h4.957c3.358,0.147,3.066,1.043,6.17,1.564
	l16.563,3.375c2.656,0.75,2.594,4.063,0.313,4.406l-20.159-2.906l0.082,1.755c0,0,6.283,25.162,6.551,26.142
	c0.151,0.467-0.067,0.817-0.537,0.817c-0.307,0-5.532,0-5.532,0l-0.006,16.835c0,3.447-4.983,3.447-4.983,0V63.046h-1.897
	l0.001,16.956c0,3.447-4.976,3.447-4.976,0V63.167c0,0-5.226,0-5.524,0c-0.496,0-0.69-0.35-0.557-0.817
	c0.274-0.98,6.66-26.626,6.66-26.626h-0.556l-4.861,14.33C13.845,53.198,10.072,52.002,11.029,48.641"/>
<ellipse fill="rgba(0, 0, 0, 0.4)" cx="25.596" cy="21.368" rx="5.373" ry="5.546"/>
<g>
	<g>
		<path fill="rgba(0, 0, 0, 0.4)" d="M64.897,48.265l-4.697-6.881L55.607,47.9l-4.515-6.263l-1.998,5.193c-0.141,0.364-0.582,0.572-0.994,0.438
			c-0.41-0.131-0.621-0.551-0.479-0.914l3.049-7.909l4.92,6.838l4.62-6.572l4.242,6.198l3.246-9.145
			c0.138-0.362,0.591-0.572,0.989-0.449c0.412,0.115,0.64,0.515,0.504,0.89L64.897,48.265z"/>
	</g>
	<rect x="63.065" y="56.454" fill="rgba(0, 0, 0, 0.4)" width="6.26" height="22.056"/>
	<polygon fill="rgba(0, 0, 0, 0.4)" points="53.748,84.179 50.661,84.179 63.065,75.376 63.065,78.383 	"/>
	<polygon fill="rgba(0, 0, 0, 0.4)" points="78.643,84.179 81.73,84.179 69.325,75.376 69.325,78.383 	"/>
	<rect x="63.065" y="21.81" fill="rgba(0, 0, 0, 0.4)" width="6.26" height="8.505"/>
	<rect x="42.085" y="24.645" fill="rgba(0, 0, 0, 0.4)" width="47.04" height="5.671"/>
	<path fill="rgba(0, 0, 0, 0.4)" d="M81.73,38.293c0,2.055-1.842,3.722-4.13,3.722c-2.264,0-4.106-1.666-4.106-3.722
		c0-2.059,1.842-3.727,4.106-3.727C79.888,34.567,81.73,36.234,81.73,38.293z"/>
	<rect x="73.452" y="44.49" fill="rgba(0, 0, 0, 0.4)" width="3.131" height="2.835"/>
	<rect x="79.712" y="44.49" fill="rgba(0, 0, 0, 0.4)" width="3.131" height="2.835"/>
	<path fill="rgba(0, 0, 0, 0.4)" d="M89.125,28.185h-47.04v31.519h47.04V28.185L89.125,28.185z M85.378,55.704H46.003v-26.75h39.375V55.704z"/>
</g>
</svg>
