<?xml version="1.0" encoding="iso-8859-1"?>
<!-- Generator: Adobe Illustrator 21.0.2, SVG Export Plug-In . SVG Version: 6.00 Build 0)  -->
<svg version="1.1" id="Layer_1" xmlns="http://www.w3.org/2000/svg" xmlns:xlink="http://www.w3.org/1999/xlink" x="0px" y="0px"
	 viewBox="0 0 100 100" enable-background="new 0 0 100 100" xml:space="preserve">
<g>
	<circle fill="#605270" cx="57.228" cy="15.648" r="11.5"/>
	<g>
		<path fill="#605270" d="M34.423,87.592c0.092,0.2,0.191,0.397,0.297,0.591c1.359,2.488,3.713,4.498,6.18,5.832
			c0.788,0.426,1.61,0.791,2.459,1.076c1.875,0.63,4.043,0.832,6.013,0.739c0.39-0.018,0.778-0.065,1.165-0.123
			c2.146-0.321,4.277-1.001,6.085-2.224c1.87-1.265,3.673-2.747,5.296-4.314c0.608-0.587,1.107-1.284,1.655-1.928
			c0.191-0.225,0.558-0.802,0.658-1.08c0.322-0.893-0.173-2.208-1.087-2.652c-0.349-0.169-0.76-0.147-1.14-0.071
			c-0.731,0.147-1.408,0.476-2.038,0.868c-0.703,0.437-1.292,0.992-2.113,1.217c-0.641,0.176-1.361,0.143-1.931-0.202
			c-1.023-0.619-0.902-1.868-0.804-2.898c0.09-0.947,0.284-1.894,0.461-2.829c0,0,1.813-9.562,1.813-9.562l1.305-6.595L46.3,56.813
			l-9.229,4.443c0,0-3.766,18.993-3.768,19.002C32.834,82.628,33.423,85.422,34.423,87.592z"/>
		<path fill="#605270" d="M60.965,39.023c-0.092-0.2-0.191-0.397-0.297-0.591c-1.359-2.488-3.713-4.498-6.18-5.832
			c-0.788-0.426-1.61-0.791-2.459-1.076c-1.875-0.63-4.043-0.832-6.013-0.738c-0.39,0.018-0.778,0.065-1.165,0.123
			c-2.146,0.321-4.277,1.001-6.085,2.225c-1.87,1.265-3.673,2.747-5.296,4.314c-0.608,0.587-0.854,0.813-1.402,1.457
			c-0.191,0.225-0.561,0.933-0.661,1.211c-0.322,0.893-0.078,2.548,0.837,2.992c0.349,0.169,0.76,0.147,1.14,0.071
			c0.731-0.147,1.408-0.476,2.038-0.868c0.703-0.437,1.292-0.992,2.113-1.218c0.641-0.176,1.361-0.143,1.931,0.202
			c1.023,0.619,0.902,1.868,0.804,2.898c-0.09,0.947-0.284,1.894-0.461,2.829c0,0-1.813,9.563-1.813,9.563l-1.156,5.844l12.25,7.375
			l9.375-5.188c0,0,3.619-18.249,3.621-18.257C62.554,43.988,61.965,41.194,60.965,39.023z"/>
	</g>
</g>
</svg>
