<?xml version="1.0" encoding="iso-8859-1"?>
<!-- Generator: Adobe Illustrator 21.0.2, SVG Export Plug-In . SVG Version: 6.00 Build 0)  -->
<svg version="1.1" id="Layer_1" xmlns="http://www.w3.org/2000/svg" xmlns:xlink="http://www.w3.org/1999/xlink" x="0px" y="0px"
	 viewBox="0 0 64 64" enable-background="new 0 0 64 64" xml:space="preserve">
<g>
	<g>
		<g>
			<path fill="#605270" d="M23.258,23.31c2.339-2.626,6.999-3.197,9.628-0.656c1.389,1.342,3.513-0.777,2.121-2.121
				c-3.755-3.628-10.431-3.205-13.87,0.656C19.856,22.627,21.97,24.756,23.258,23.31L23.258,23.31z"/>
		</g>  
	</g>
	<g>
		<path fill="#605270" d="M51.627,45.567l-7.759-7.94c1.449-2.621,2.287-5.642,2.287-8.864c0-9.967-7.928-18.076-17.666-18.076
			c-9.744,0-17.667,8.109-17.667,18.076c0,9.968,7.923,18.079,17.667,18.079c3.642,0,7.031-1.137,9.844-3.079l7.528,7.705
			c0.797,0.811,1.837,1.219,2.883,1.219c1.04,0,2.086-0.407,2.883-1.219C53.219,49.838,53.219,47.199,51.627,45.567z M16.258,28.764
			c0-6.9,5.484-12.514,12.231-12.514c6.742,0,12.23,5.614,12.23,12.514c0,6.902-5.489,12.517-12.23,12.517
			C21.742,41.281,16.258,35.665,16.258,28.764z"/>
	</g>
</g>
</svg>
