<?xml version="1.0" encoding="iso-8859-1"?>
<!-- Generator: Adobe Illustrator 21.0.2, SVG Export Plug-In . SVG Version: 6.00 Build 0)  -->
<svg version="1.1" id="Layer_1" xmlns="http://www.w3.org/2000/svg" xmlns:xlink="http://www.w3.org/1999/xlink" x="0px" y="0px"
	 viewBox="0 0 100 100" enable-background="new 0 0 100 100" xml:space="preserve">
<path fill="rgba(0, 0, 0, 0.4)" d="M72.704,57.178c0-0.476,0.011-2.257,0.011-3.125h1.43c7.75,0,14.044-6.5,14.044-14.527
	c0-8.008-6.306-14.52-14.082-14.52l-46.774-0.007v32.179c0,4.004,3.12,7.227,6.977,7.227h31.4
	C69.584,64.405,72.704,61.182,72.704,57.178 M74.144,48.31c-0.619,0-1.43,0.005-1.43,0.005V30.764h1.43
	c4.683,0,8.477,3.927,8.477,8.762C82.621,44.374,78.827,48.31,74.144,48.31z M10,66.553c0,4.683,3.655,8.448,8.176,8.448H81.84
	c4.522,0,8.16-3.765,8.16-8.448H10z"/>
</svg>
