<?xml version="1.0" encoding="utf-8"?>
<!-- Generator: Adobe Illustrator 21.0.2, SVG Export Plug-In . SVG Version: 6.00 Build 0)  -->
<svg version="1.1" id="test" xmlns="http://www.w3.org/2000/svg" xmlns:xlink="http://www.w3.org/1999/xlink" x="0px" y="0px"
	 viewBox="0 0 100 100" style="enable-background:new 0 0 100 100;" xml:space="preserve">
<style type="text/css">
	.st0{fill:rgba(0, 0, 0, 0.4);}
</style>
<g>
	<polygon class="st0" points="55,50 46.4,26.4 41.9,32.8 51.3,50 	"/>
	<path class="st0" d="M14.6,54c-1.4,2.3-3.8,4.9-4,7.7c-0.2,3,0.2,3.5,1.4,5.2c2.1,3.2,5.1,3.6,8.7,4.2c3.2,0.5,7.2,0.1,9.5-1.7
		c0.5-0.3,3.9-2.9,3.9-2.9c-0.3-0.3-8.6-10-8.6-10l-2.3,1.5l-0.8,0.2l-0.9,0.2l-1.3,0l-1.5-0.3l-1.1-0.5l-0.9-0.6L15.9,56l-0.5-0.7
		C15.4,55.3,14.6,54,14.6,54z"/>
	<polygon class="st0" points="45.3,22.1 23.7,53.8 17.8,49.9 37.5,16.7 	"/>
	<path class="st0" d="M37.4,16.9c-1.3,2.2-0.6,5.1,1.6,6.4c2.2,1.3,4.9,1,6.4-1.6c1.3-2.2,0.6-5.1-1.6-6.4S38.7,14.7,37.4,16.9z"/>
	<ellipse transform="matrix(0.5119 -0.859 0.859 0.5119 -34.0137 43.1389)" class="st0" cx="21" cy="51.5" rx="3.8" ry="3.6"/>
	<path class="st0" d="M54.3,60.2v-2.9h-7.4v-9.5H60l4.9-20H80v29.7l-3.1,0l0,2.7H54.3z M77.3,43.4V30.6H67.1L64,43.4H77.3z"/>
	<path class="st0" d="M86.2,79.6H41.8c-2.4,0-4.4-2-4.4-4.4v-7.6c0-2.4,2-4.4,4.4-4.4h44.4c2.4,0,4.4,2,4.4,4.4v7.6
		C90.6,77.6,88.7,79.6,86.2,79.6z M89,74.4v-6c0-1.9-1.6-3.5-3.5-3.5h-43c-1.9,0-3.5,1.6-3.5,3.5v6c0,1.9,1.6,3.5,3.5,3.5h43
		C87.4,77.9,89,76.3,89,74.4z"/>
	<circle class="st0" cx="46" cy="71.4" r="5.6"/>
	<circle class="st0" cx="82.1" cy="71.4" r="5.6"/>
	<circle class="st0" cx="73" cy="71.4" r="5.6"/>
	<circle class="st0" cx="54.4" cy="71.4" r="5.6"/>
	<circle class="st0" cx="63.5" cy="71.4" r="5.6"/>
</g>
</svg>
