<?xml version="1.0" encoding="iso-8859-1"?>
<!-- Generator: Adobe Illustrator 21.0.2, SVG Export Plug-In . SVG Version: 6.00 Build 0)  -->
<svg version="1.1" id="Layer_1" xmlns="http://www.w3.org/2000/svg" xmlns:xlink="http://www.w3.org/1999/xlink" x="0px" y="0px"
	 viewBox="0 0 100 100" enable-background="new 0 0 100 100" xml:space="preserve">
<path fill="rgba(0, 0, 0, 0.4)" d="M43.379,78.723H22.904c-5.064,0-9.169-4.105-9.169-9.169v-0.113H52.66v0
	C52.66,74.568,48.505,78.723,43.379,78.723z"/>
<path fill="rgba(0, 0, 0, 0.4)" d="M24.048,47.223h18.425c5.626,0,10.188,4.561,10.188,10.188v0.612H13.735v-0.487
	C13.735,51.84,18.352,47.223,24.048,47.223z M25.492,49.417c-0.482,0-0.872,0.227-0.872,0.506s0.39,0.506,0.872,0.506
	s0.872-0.227,0.872-0.506S25.973,49.417,25.492,49.417z M30.667,51.723c-0.404,0-0.731,0.201-0.731,0.45s0.327,0.45,0.731,0.45
	s0.731-0.201,0.731-0.45S31.071,51.723,30.667,51.723z M22.735,53.186c-0.249,0-0.45,0.113-0.45,0.253s0.201,0.253,0.45,0.253
	s0.45-0.113,0.45-0.253S22.984,53.186,22.735,53.186z M26.378,53.692c-0.272,0-0.492,0.157-0.492,0.352
	c0,0.194,0.22,0.352,0.492,0.352s0.492-0.157,0.492-0.352C26.87,53.849,26.649,53.692,26.378,53.692z M40.651,51.723
	c-0.326,0-0.591,0.151-0.591,0.337c0,0.186,0.264,0.338,0.591,0.338c0.326,0,0.591-0.151,0.591-0.338
	C41.242,51.874,40.977,51.723,40.651,51.723z M47.401,53.368c-0.326,0-0.591,0.151-0.591,0.337c0,0.186,0.264,0.338,0.591,0.338
	c0.326,0,0.591-0.151,0.591-0.338C47.992,53.519,47.727,53.368,47.401,53.368z M42.198,49.642c-0.311,0-0.563,0.126-0.563,0.281
	s0.252,0.281,0.563,0.281c0.311,0,0.563-0.126,0.563-0.281S42.509,49.642,42.198,49.642z M28.885,52.736
	c-0.311,0-0.563,0.126-0.563,0.281s0.252,0.281,0.563,0.281c0.311,0,0.563-0.126,0.563-0.281S29.196,52.736,28.885,52.736z
	 M22.473,49.736c-0.311,0-0.563,0.126-0.563,0.281s0.252,0.281,0.563,0.281c0.311,0,0.563-0.126,0.563-0.281
	S22.784,49.736,22.473,49.736z M23.185,50.561c-0.311,0-0.563,0.126-0.563,0.281c0,0.155,0.252,0.281,0.563,0.281
	c0.311,0,0.563-0.126,0.563-0.281C23.748,50.686,23.496,50.561,23.185,50.561z M19.107,54.057c-0.357,0-0.647,0.201-0.647,0.45
	s0.29,0.45,0.647,0.45c0.357,0,0.647-0.201,0.647-0.45S19.465,54.057,19.107,54.057z M37.622,48.75
	c-0.171-0.007-0.312,0.049-0.314,0.124c-0.003,0.075,0.133,0.142,0.304,0.148s0.312-0.049,0.314-0.124
	C37.929,48.823,37.793,48.756,37.622,48.75z M45.207,53.186c-0.357,0-0.647,0.113-0.647,0.253s0.29,0.253,0.647,0.253
	c0.357,0,0.647-0.113,0.647-0.253S45.565,53.186,45.207,53.186z M46.81,54.676c-0.28,0-0.506,0.107-0.506,0.239
	s0.227,0.239,0.506,0.239s0.506-0.107,0.506-0.239S47.09,54.676,46.81,54.676z"/>
<polygon fill="rgba(0, 0, 0, 0.4)" points="58.115,32.39 61.156,78.723 82.823,78.723 85.49,32.39 "/>
<path fill="rgba(0, 0, 0, 0.4)" d="M86.156,33.848H57.448c-0.802,0-1.458-0.656-1.458-1.458v0c0-0.802,0.656-1.458,1.458-1.458h28.708
	c0.802,0,1.458,0.656,1.458,1.458v0C87.615,33.192,86.958,33.848,86.156,33.848z"/>
<line fill="none" stroke="rgba(0, 0, 0, 0.4)" stroke-width="3" stroke-miterlimit="10" x1="80.24" y1="21.277" x2="71.24" y2="38.777"/>
<path fill="rgba(0, 0, 0, 0.4)" d="M52.443,67.22h-38.49c-1.694,0-3.068-1.373-3.068-3.068v-0.824c0-1.703,1.38-3.083,3.083-3.083h38.536
	c1.66,0,3.005,1.345,3.005,3.005v0.902C55.51,65.846,54.137,67.22,52.443,67.22z M33.56,60.823c0.723-0.005,1.589,0.304,2.292,0.473
	c0.728,0.175,1.458,0.377,2.154,0.655c1.107,0.443,2.159,1.015,3.153,1.672c0.439,0.29,0.892,0.581,1.269,0.951
	c0.109,0.107,1.046,1.15,0.969,1.238c0,0,4.375-5.005,4.375-5.005c-3.845,0-7.691-0.026-11.535-0.001
	C35.345,60.812,34.454,60.818,33.56,60.823z"/>
</svg>
