<?xml version="1.0" encoding="iso-8859-1"?>
<!-- Generator: Adobe Illustrator 21.0.2, SVG Export Plug-In . SVG Version: 6.00 Build 0)  -->
<svg version="1.1" id="Layer_1" xmlns="http://www.w3.org/2000/svg" xmlns:xlink="http://www.w3.org/1999/xlink" x="0px" y="0px"
	 viewBox="0 0 100 100" enable-background="new 0 0 100 100" xml:space="preserve">
<g>
	<polygon fill="rgba(0, 0, 0, 0.4)" points="48.074,61.262 54.242,64.482 50.903,79.527 54.979,79.432 55.007,87.84 59.976,87.84
		59.976,79.458 62.409,79.432 62.409,87.962 67.44,87.962 67.402,79.383 71.411,79.363 67.887,64.308 76.44,56.127 72.841,52.386 
		65.688,59.844 56.333,59.7 50.896,57.242 47.848,52.857 43.874,56.173 	"/>
	<ellipse fill="rgba(0, 0, 0, 0.4)" cx="29.477" cy="16.881" rx="7.029" ry="7.085"/>
	<path fill="rgba(0, 0, 0, 0.4)" d="M66.953,51.434c0,3.372-2.665,6.103-5.956,6.103c-3.288,0-5.956-2.731-5.956-6.103
		c0-3.368,2.667-6.102,5.956-6.102c1.892,0,3.579,0.904,4.669,2.314C66.473,48.686,66.953,50.003,66.953,51.434z"/>
	<polygon fill="rgba(0, 0, 0, 0.4)" points="66.337,47.719 66.681,47.275 67.125,46.882 67.641,46.513 68.527,46.341 69.832,46.537
		70.791,47.029 71.53,47.374 72.341,48.113 73.105,48.925 73.498,49.342 73.498,49.957 72.908,50.106 71.924,50.106 70.595,50.106 
		69.757,50.106 68.749,49.613 67.986,49.121 67.469,48.827 66.953,48.925 66.804,49.219 66.715,49.727 66.657,50.106 65.008,47.719 
			"/>
	<polygon fill="rgba(0, 0, 0, 0.4)" points="57.084,47.793 55.829,47.793 55.632,47.793 55.361,47.178 55.041,46.783 54.475,46.537
		53.59,46.341 51.99,46.562 50.841,47.227 49.873,48.063 49.258,48.555 48.496,49.318 48.347,49.908 49.061,50.302 52.36,50.302 
		53.072,49.957 54.057,49.416 54.599,49.096 54.918,48.827 55.19,48.728 55.361,48.802 55.536,49.004 56.002,49.49 	"/>
	<ellipse fill="rgba(0, 0, 0, 0.4)" cx="45.913" cy="54.589" rx="2.543" ry="2.653"/>
	<ellipse fill="rgba(0, 0, 0, 0.4)" cx="74.558" cy="54.343" rx="2.543" ry="2.652"/>
	<ellipse fill="rgba(0, 0, 0, 0.4)" cx="64.924" cy="87.84" rx="2.516" ry="2.365"/>
	<path fill="rgba(0, 0, 0, 0.4)" d="M59.976,87.84c0,1.305-1.127,2.365-2.516,2.365s-2.452-1.06-2.452-2.365c0-1.306,1.063-2.366,2.452-2.366
		S59.976,86.534,59.976,87.84z"/>
	<path fill="rgba(0, 0, 0, 0.4)" d="M12.334,50.226l5.43-18.445c1.041-3.252,4.199-5.82,8.801-5.82h5.831c4.61,0,7.76,2.568,8.796,5.82
		l5.557,19.04c1.479,3.768-3.163,5.698-4.333,1.998l-6-17.789h-0.67c0,0,7.535,30.172,7.85,31.326c0.177,0.55-0.079,0.96-0.632,0.96
		c-0.361,0-6.508,0-6.508,0L36.45,87.122c0,4.056-5.862,4.056-5.862,0v-19.95h-2.232l0.001,19.95c0,4.056-5.854,4.056-5.854,0
		V67.316c0,0-6.149,0-6.5,0c-0.583,0-0.81-0.411-0.654-0.96c0.322-1.154,7.836-31.326,7.836-31.326h-0.654l-5.719,16.859
		C15.647,55.589,11.207,54.182,12.334,50.226"/>
	<path fill="rgba(0, 0, 0, 0.4)" d="M79.944,19.455c0.26,3.026-1.095,6.774-3.525,6.983s-5.015-3.199-5.275-6.226s1.499-5.649,3.929-5.858
		C77.502,14.145,79.683,16.429,79.944,19.455z"/>
	<path fill="rgba(0, 0, 0, 0.4)" d="M89.452,25.894c-0.385,3.319-3.098,6.572-5.763,6.262c-2.665-0.31-4.274-4.064-3.888-7.383
		c0.385-3.319,2.859-5.759,5.524-5.449C87.99,19.633,89.838,22.575,89.452,25.894z"/>
	<path fill="none" stroke="rgba(0, 0, 0, 0.4)" stroke-width="0.75" stroke-miterlimit="10" d="M83.689,29.625
		c-0.215,2.853-0.431,5.718-1.024,8.523c-0.529,2.497-1.498,4.761-2.476,7.102l-2.764,6.019l-1.382,2.419l1.75-3.063
		c1.704-5.407,2.351-10.835,0.906-16.399c-0.892-3.436-1.913-6.782-2.656-10.26"/>
	<polygon fill="rgba(0, 0, 0, 0.4)" points="75.897,24.792 76.043,27.458 77.751,27.042 76.335,24.563 	"/>
	<polygon fill="rgba(0, 0, 0, 0.4)" points="83.624,30.484 82.543,32.854 84.46,33.104 83.939,30.484 	"/>
</g>
</svg>
