<?xml version="1.0" encoding="utf-8"?>
<!-- Generator: Adobe Illustrator 21.0.2, SVG Export Plug-In . SVG Version: 6.00 Build 0)  -->
<svg version="1.1" id="Layer_1" xmlns="http://www.w3.org/2000/svg" xmlns:xlink="http://www.w3.org/1999/xlink" x="0px" y="0px"
	 viewBox="0 0 100 100" style="enable-background:new 0 0 100 100;" xml:space="preserve">
<style type="text/css">
	.st0{fill:#FFFFFF;}
</style>
<g>
	<path class="st0" d="M45.8,38.1l3.8,5.6l3.8-5.6l-3.1-5.5c0,0-0.2-0.4,0-0.9C50.6,31.2,61,14.4,61,14.4s0.9-1.4,0.9-1.4
		c0.5-0.8,2.2-0.6,2.3,0.4c0,0.2,0,0.6-0.2,0.8l-2.4,4.4l-6.4,11.4l-0.4,0.7l-0.1,0.5l0.1,0.5l0.3,0.5l0.4,0.3l0.5,0.2h0.4l0.3-0.1
		l0.5-0.3l0.6-0.8l1-1.5l8.1-13.6l0.3-0.5l0.3-0.3l0.3-0.2c0,0,0.3,0,0.3,0c0.5-0.1,1.1,0.2,1.4,0.7c0.3,0.5,0.2,1,0.1,1.5L69,18.8
		L60.3,34l-0.1,0.3l0,0.4l0,0.5l0.1,0.3l0.4,0.4l0.4,0.2l0.5,0l0.4,0l0.4-0.1l0.5-0.6l1.4-2.2l7.7-12.7l0.5-0.8l0.3-0.3l0.3-0.2
		c0,0,0.3-0.2,0.3-0.2c0.4-0.2,1.2,0.1,1.5,0.3c0.5,0.4,0.5,0.9,0.4,1.4l-0.3,0.6l-5.1,9.1l-5.8,9.9l-0.2,0.2l-6.1,0.1L53,48.8
		l21.4,32.1c0,0,0.5,0.9,0.5,0.9c0.3,0.5,0.2,1.4,0.2,2c-0.1,1.1-0.9,2.1-1.8,2.7c-0.7,0.5-1.2,0.9-2.2,0.9c-1.1,0-2.3-0.4-2.9-1.4
		l-3.3-5.4L49.7,54.6L32.5,85.8c0,0-0.9,0.8-1,0.8c-0.4,0.3-1.3,0.4-1.8,0.5c-0.8,0.1-1.5,0-2.2-0.3c-0.7-0.3-1.8-1.4-2-2.2
		c-0.2-0.8-0.4-2.4,0.1-3.1l1.5-2.2l3.2-5.2l16.2-25.3l-4.6-7.9l0.5-2.8L45.8,38.1z"/>
	<path class="st0" d="M29,33.3c-3.9-6.4-6.1-17.1-1.9-19.9c3.8-2.6,14.1,3.9,17.9,10.3s3.4,13.8-1,16.5C39.6,42.8,32.9,39.7,29,33.3
		z"/>
</g>
</svg>
