<?xml version="1.0" encoding="utf-8"?>
<!-- Generator: Adobe Illustrator 21.0.2, SVG Export Plug-In . SVG Version: 6.00 Build 0)  -->
<svg version="1.1" id="test" xmlns="http://www.w3.org/2000/svg" xmlns:xlink="http://www.w3.org/1999/xlink" x="0px" y="0px"
	 viewBox="0 0 100 100" style="enable-background:new 0 0 100 100;" xml:space="preserve">
<style type="text/css">
	.st0{fill:rgba(0, 0, 0, 0.4);}
</style>
<path class="st0" d="M51.3,6l39.5,15.5c0,0,0,72.5-40.8,72.5C11,94,9.3,21,9.3,21L51.3,6z M50.9,10.5v15.1h7.4L58.4,40l0,0.6h14.2
	l-0.1,14.2H58.1v15.4h-7.2c0,0,0,19.6,0,19.8s32,3.8,36.7-64.7L50.9,10.5z M45.7,27.7v14.7H31v10.5h14.7v14.7h10.5V52.9h14.7V42.4
	H56.2V27.7H45.7z"/>
</svg>
