<?xml version="1.0" encoding="iso-8859-1"?>
<!-- Generator: Adobe Illustrator 21.0.2, SVG Export Plug-In . SVG Version: 6.00 Build 0)  -->
<svg version="1.1" id="Layer_1" xmlns="http://www.w3.org/2000/svg" xmlns:xlink="http://www.w3.org/1999/xlink" x="0px" y="0px"
	 viewBox="0 0 100 100" enable-background="new 0 0 100 100" xml:space="preserve">
<g>
	<defs>
		<rect id="SVGID_1_" x="11" y="15.5" width="78" height="69"/>
	</defs>
	<clipPath id="SVGID_2_">
		<use xlink:href="#SVGID_1_"  overflow="visible"/>
	</clipPath>
	<path clip-path="url(#SVGID_2_)" fill="#FFFFFF" d="M82.083,72.068c0,0-8.663-3.646-15.104-4.317
		c-4.85-0.539-15.409,2.409-15.409,2.409V17.81c0,0,9.445-2.761,15.409-2.245c7.888,0.68,15.104,4.143,15.104,4.143V72.068"/>
	<path clip-path="url(#SVGID_2_)" fill="#FFFFFF" d="M17.291,72.068c0,0,8.648-3.646,15.095-4.317
		c4.86-0.539,15.41,2.409,15.41,2.409V17.81c0,0-9.435-2.761-15.41-2.245c-7.878,0.68-15.095,4.143-15.095,4.143V72.068"/>
	<path clip-path="url(#SVGID_2_)" fill="#FFFFFF" d="M85.227,25.99c0,0,0.75-0.124,2.001,0.362c1.257,0.47,1.769,1.162,1.769,1.162
		L89,27.477v54.946c0,0.768-0.393,1.472-1.011,1.843c-0.268,0.154-0.573,0.229-0.872,0.229c-0.375,0-0.748-0.124-1.07-0.367
		c0,0-0.457-0.332-1.391-0.917c-0.938-0.567-2.304-1.359-4.026-2.133c-3.45-1.557-8.278-3.104-13.805-3.099
		c-4.778,0.005-10.04,1.13-15.492,4.411c-0.281,0.188-0.591,0.261-0.914,0.261h-0.84c-0.318,0-0.629-0.074-0.911-0.261
		c-5.449-3.281-10.723-4.406-15.485-4.411c-8.285-0.015-15.042,3.492-17.846,5.231c-0.929,0.586-1.378,0.917-1.378,0.917
		c-0.579,0.437-1.326,0.492-1.95,0.137C11.39,83.894,11,83.194,11,82.422V29.352c0,0,0.514-0.69,1.77-1.169
		c1.254-0.472,2.004-0.351,2.004-0.351v51c3.609-2.039,10.247-4.987,18.409-5.011c5.168,0,10.939,1.224,16.815,4.641
		c5.863-3.423,11.652-4.641,16.828-4.641c8.156,0.023,14.798,2.972,18.402,5.011v-51v-1.788V25.99"/>
</g>
</svg>
