<?xml version="1.0" encoding="iso-8859-1"?>
<!-- Generator: Adobe Illustrator 21.0.2, SVG Export Plug-In . SVG Version: 6.00 Build 0)  -->
<svg version="1.1" id="Layer_1" xmlns="http://www.w3.org/2000/svg" xmlns:xlink="http://www.w3.org/1999/xlink" x="0px" y="0px"
	 viewBox="0 0 100 100" enable-background="new 0 0 100 100" xml:space="preserve">
<g>
	<path fill="rgba(0, 0, 0, 0.4)" d="M83.812,27.666v31.736H16.208V27.666H83.812 M89,22.964H11v41.139h78V22.964L89,22.964z"/>
	<g>
		<path fill="rgba(0, 0, 0, 0.4)" d="M48.827,56.26l-7.788-11.41l-7.617,10.806l-7.486-10.384l-3.313,8.61
			c-0.233,0.604-0.966,0.948-1.648,0.727c-0.68-0.218-1.03-0.913-0.795-1.516l5.056-13.115l8.158,11.339l7.66-10.897l7.034,10.278
			l5.382-15.165c0.229-0.601,0.979-0.948,1.64-0.744c0.684,0.191,1.061,0.853,0.836,1.475L48.827,56.26z"/>
	</g>
	<rect x="47.404" y="59.402" fill="rgba(0, 0, 0, 0.4)" width="10.38" height="18.804"/>
	<polygon fill="rgba(0, 0, 0, 0.4)" points="31.956,87.607 26.837,87.607 47.404,73.01 47.404,77.996 	"/>
	<polygon fill="rgba(0, 0, 0, 0.4)" points="73.237,87.607 78.355,87.607 57.785,73.01 57.785,77.996 	"/>
	<rect x="47.404" y="12.393" fill="rgba(0, 0, 0, 0.4)" width="10.38" height="14.104"/>
	<rect x="11" y="17.093" fill="rgba(0, 0, 0, 0.4)" width="78" height="9.403"/>
	<path fill="rgba(0, 0, 0, 0.4)" d="M76.739,39.725c0,3.408-3.055,6.172-6.848,6.172c-3.754,0-6.809-2.763-6.809-6.172
		c0-3.414,3.055-6.179,6.809-6.179C73.684,33.546,76.739,36.311,76.739,39.725z"/>
	<rect x="63.012" y="50.001" fill="rgba(0, 0, 0, 0.4)" width="5.192" height="4.701"/>
	<rect x="73.393" y="50.001" fill="rgba(0, 0, 0, 0.4)" width="5.192" height="4.701"/>
</g>
</svg>
