<?xml version="1.0" encoding="iso-8859-1"?>
<!-- Generator: Adobe Illustrator 21.0.2, SVG Export Plug-In . SVG Version: 6.00 Build 0)  -->
<svg version="1.1" id="Layer_1" xmlns="http://www.w3.org/2000/svg" xmlns:xlink="http://www.w3.org/1999/xlink" x="0px" y="0px"
	 viewBox="0 0 100 100" enable-background="new 0 0 100 100" xml:space="preserve">
<circle fill="#FFFFFF" cx="49.937" cy="79.5" r="2.874"/>
<polygon fill="#FFFFFF" points="28.393,53.144 47.493,80.996 50.624,81.188 52.567,80.657 71.481,53.143 48.604,52.833 "/>
<path fill="#FFFFFF" d="M75.937,38.583c0,14.359-11.641,26-26,26s-26-11.641-26-26s11.641-26,26-26S75.937,24.224,75.937,38.583z
	 M49.937,29.292c-5.132,0-9.292,4.16-9.292,9.292s4.16,9.292,9.292,9.292s9.292-4.16,9.292-9.292S55.068,29.292,49.937,29.292z"/>
<path fill="none" stroke="#FFFFFF" stroke-width="3" stroke-linecap="round" stroke-miterlimit="10" d="M65.407,72.784
	c8.214,1.399,13.676,3.884,13.676,6.716c0,4.372-13.021,7.917-29.083,7.917S20.917,83.872,20.917,79.5
	c0-2.759,5.186-5.189,13.05-6.606"/>
</svg>
