<?xml version="1.0" encoding="iso-8859-1"?>
<!-- Generator: Adobe Illustrator 21.0.2, SVG Export Plug-In . SVG Version: 6.00 Build 0)  -->
<svg version="1.1" id="Layer_1" xmlns="http://www.w3.org/2000/svg" xmlns:xlink="http://www.w3.org/1999/xlink" x="0px" y="0px"
	 viewBox="0 0 100 100" enable-background="new 0 0 100 100" xml:space="preserve">
<g>
	<path fill="#FFFFFF" d="M14.625,90.204c0,0,73.887-0.04,74-0.04c1.531-0.001,3.35-0.499,4.031-2.019
		c0.361-0.806,0.261-1.744,0.261-2.609c0-2.05,0-4.1,0-6.149c0-2.742,0-5.484,0-8.226c0-2.487,0-4.975,0-7.462
		c0-1.285,0-2.571,0-3.856c0-0.031,0-0.062,0-0.093c-0.121-0.488-0.164-1.464-0.548-1.799c-0.205-0.179-0.41-0.357-0.615-0.536
		c-0.141-0.123-0.283-0.247-0.444-0.343c-1.769-1.061-4.489-0.133-6.351,0.18c-4.024,0.677-8.029,1.469-12.012,2.353
		c-5.631,1.25-11.222,2.689-16.748,4.342c-5.432,1.625-10.805,3.456-16.073,5.553C15.696,79.222,12.887,86.544,12.87,86.584
		c-0.36,0.851-0.239,1.337-0.225,2.235C12.667,90.204,13.375,90.204,14.625,90.204z"/>
	<path fill="#FFFFFF" d="M11.094,85.719c-0.387,0.625-0.781,1.516-1.109,1.656c-0.287,0.123-1.511,0.175-1.688-0.063
		C8,86.913,8.056,85.431,8.034,84.922c-0.029-0.656,0.029-2.245,0.029-2.731c0-0.815,0-1.629,0-2.444c0-1.081,0-2.162,0-3.244
		c0-1.264,0-2.528,0-3.792c0-1.363,0-2.726,0-4.089c0-1.378,0-2.757,0-4.135c0-1.31,0-2.62,0-3.93c0-1.158,0-2.316,0-3.474
		c0-0.922,0-1.844,0-2.766c0-0.602,0-1.205,0-1.807c0-0.2,0-0.4,0-0.6c0-1.112,0.553-2.672,1.551-3.266
		c0.788-0.468,1.979-0.718,2.893-0.616c0.128,0.014,0.256,0.034,0.384,0.05c0.362,0.046,0.724,0.093,1.086,0.141
		c1.17,0.155,2.339,0.319,3.507,0.49c1.644,0.24,3.285,0.494,4.925,0.76c1.972,0.321,3.941,0.661,5.906,1.024
		c2.156,0.398,4.308,0.822,6.452,1.28c2.196,0.469,4.385,0.974,6.562,1.529c2.094,0.534,4.176,1.115,6.235,1.771
		c1.851,0.59,3.687,1.24,5.473,2.006c0.835,0.358,1.66,0.743,2.464,1.167c3.278,1.733,2.219,3.094,2.219,3.094
		s-19.344,6.448-25.01,9.115c-5.667,2.667-16.825,9.472-19.615,12.432C11.813,84.25,12.176,83.97,11.094,85.719z"/>
	<line fill="none" stroke="#FBFCFB" stroke-width="3" stroke-miterlimit="10" x1="31.821" y1="61.889" x2="31.821" y2="42.264"/>
	<ellipse fill="#FBFCFB" cx="26.063" cy="42.879" rx="4.813" ry="4.313"/>
	<ellipse fill="#FBFCFB" cx="32.625" cy="40.122" rx="6" ry="6.781"/>
	<ellipse fill="#FBFCFB" cx="34.813" cy="32.278" rx="6" ry="7.813"/>
	<ellipse fill="#FBFCFB" cx="27.641" cy="32.802" rx="6" ry="6.288"/>
	<circle fill="#FBFCFB" cx="38.625" cy="41.153" r="4.688"/>
	<ellipse fill="#FBFCFB" cx="24.813" cy="36.466" rx="3.563" ry="4.188"/>
	<circle fill="#FBFCFB" cx="32.766" cy="26.153" r="5.125"/>
	<circle fill="#FBFCFB" cx="40.021" cy="36.087" r="2.479"/>
	<line fill="none" stroke="#FBFCFB" stroke-width="4" stroke-miterlimit="10" x1="71.773" y1="71.708" x2="71.773" y2="48.158"/>
	<ellipse fill="#FBFCFB" cx="64.864" cy="48.896" rx="5.775" ry="5.175"/>
	<ellipse fill="#FBFCFB" cx="72.739" cy="45.588" rx="7.2" ry="8.137"/>
	<ellipse fill="#FBFCFB" cx="75.364" cy="36.175" rx="7.2" ry="9.375"/>
	<ellipse fill="#FBFCFB" cx="66.758" cy="36.804" rx="7.2" ry="7.546"/>
	<circle fill="#FBFCFB" cx="79.939" cy="46.825" r="5.625"/>
	<ellipse fill="#FBFCFB" cx="63.364" cy="41.2" rx="4.275" ry="5.025"/>
	<circle fill="#FBFCFB" cx="72.908" cy="28.825" r="6.15"/>
	<circle fill="#FBFCFB" cx="81.614" cy="40.746" r="2.975"/>
</g>
</svg>
