<?xml version="1.0" encoding="iso-8859-1"?>
<!-- Generator: Adobe Illustrator 21.0.2, SVG Export Plug-In . SVG Version: 6.00 Build 0)  -->
<svg version="1.1" id="Layer_1" xmlns="http://www.w3.org/2000/svg" xmlns:xlink="http://www.w3.org/1999/xlink" x="0px" y="0px"
	 viewBox="0 0 100 100" enable-background="new 0 0 100 100" xml:space="preserve">
<g>
	<path fill="#FFFFFF" d="M89,74.152V16.2H11v57.952h24.375v4.824h-9.75V83.8h48.75v-4.824h-9.75v-4.824H89z M17.175,68.688
		l-0.163-46.8h66.462l0.163,46.962L17.175,68.688z"/>
</g>
<g>
	<path fill="#FFFFFF" d="M33.501,35.374c1.403-0.234,3.24-0.435,5.578-0.435c2.873,0,4.978,0.668,6.313,1.87
		c1.202,1.069,1.971,2.706,1.971,4.71c0,2.037-0.602,3.641-1.737,4.81c-1.569,1.637-4.041,2.472-6.881,2.472
		c-0.868,0-1.67-0.033-2.338-0.2v9.019h-2.906V35.374z M36.408,46.229c0.635,0.167,1.437,0.233,2.405,0.233
		c3.507,0,5.645-1.736,5.645-4.776c0-3.006-2.138-4.442-5.311-4.442c-1.27,0-2.238,0.101-2.739,0.234V46.229z"/>
	<path fill="#FFFFFF" d="M66.97,56.918c-1.035,0.534-3.207,1.068-5.945,1.068c-6.347,0-11.089-4.008-11.089-11.423
		c0-7.081,4.776-11.824,11.757-11.824c2.772,0,4.576,0.602,5.344,1.002l-0.734,2.371c-1.069-0.534-2.639-0.935-4.51-0.935
		c-5.277,0-8.784,3.373-8.784,9.285c0,5.545,3.173,9.052,8.617,9.052c1.804,0,3.607-0.367,4.776-0.935L66.97,56.918z"/>
</g>
</svg>
