<?xml version="1.0" encoding="utf-8"?>
<!-- Generator: Adobe Illustrator 21.0.2, SVG Export Plug-In . SVG Version: 6.00 Build 0)  -->
<svg version="1.1" id="Layer_1" xmlns="http://www.w3.org/2000/svg" xmlns:xlink="http://www.w3.org/1999/xlink" x="0px" y="0px"
	 viewBox="0 0 100 100" style="enable-background:new 0 0 100 100;" xml:space="preserve">
<style type="text/css">
	.st0{fill:#FFFFFF;}
</style>
<path class="st0" d="M60,42.9c4.6-1,9.3-2.6,14-4.9c0.1-0.1,0.2-0.1,0.4-0.1c2.3-2.7,3.6-6.2,3.6-10.1c0-8.5-6.7-15.4-14.9-15.4
	c-8.2,0-14.9,6.9-14.9,15.4C48.1,35.2,53.2,41.4,60,42.9"/>
<path class="st0" d="M29.6,38.7c0.3,0.2,6,4.1,15.8,5.1c1.7-0.7,3.3-1.6,4.7-2.8c-3.2-3.4-5.2-8-5.2-13.2c0-5.1,2-9.8,5.2-13.2
	c-2.8-2.4-6.5-3.9-10.5-3.9c-9.1,0-16.5,7.6-16.5,17.1c0,3.5,1,6.8,2.8,9.5C27.3,37.4,28.5,37.9,29.6,38.7"/>
<path class="st0" d="M23.1,50.1c-0.2,0.2-1.4,1.1-3.4,2.2c-0.5,0.5-2.3,2.6-2.1,5.1c0.1,2.1,1.5,4.1,4.1,6.1c5-2.4,7.7-4.6,8-4.9
	c2.3-1.9,2.6-5.3,0.8-7.7c-1-1.3-2.5-2.1-4.1-2.1C25.2,48.9,24.1,49.4,23.1,50.1"/>
<path class="st0" d="M81.9,43.7c-0.8-1.9-2.6-3.2-4.6-3.2c-0.7,0-1.4,0.2-2,0.5c-8.6,4.2-17.1,6.3-25.4,6.3c-13.1,0-21.1-5.3-22-5.9
	c-0.8-0.6-1.8-0.9-2.7-0.9c-1.7,0-3.2,0.9-4.2,2.4c-1,1.6-1.1,3.6-0.5,5.2c0.4-0.3,0.6-0.5,0.7-0.5c1.5-1.2,3.3-1.9,5.2-1.9
	c2.6,0,5,1.2,6.6,3.3c0.7,0.8,1.1,1.7,1.4,2.7c0.3,0,0.6-0.1,0.9-0.1c1.4,0,2.8,0.4,4,1c0.2,0.1,6.8,3.6,17.2,3.6
	c6.6,0,13.3-1.4,20-4c0.9-0.4,1.9-0.8,2.8-1.3C81.9,49.7,83,46.4,81.9,43.7"/>
<path class="st0" d="M56.6,59.5c-11,0-17.9-3.6-18.7-4c-0.8-0.4-1.7-0.7-2.5-0.7c-0.2,0-0.4,0-0.5,0.1c-0.1,2.4-1.2,4.7-3.1,6.3
	c-0.1,0.1-0.6,0.5-1.3,1c0.4,1.2,1.2,2.3,2.4,2.9c0.4,0.2,9.6,5.3,23.9,5.3h0c1.8,0,3.6-0.1,5.5-0.2l0.1,0c0.6,0,14-0.5,17.5-15.9
	C72.1,57.8,64.3,59.5,56.6,59.5"/>
<path class="st0" d="M62.4,73.4c-1.9,0.2-3.8,0.3-5.7,0.3l0,0c-14.9,0-24.4-5.1-25.4-5.7c-1.6-0.9-2.9-2.4-3.6-4
	c-1.2,0.7-2.7,1.5-4.4,2.4c5,13.7,13.9,22.9,24.1,22.9c8.8,0,16.5-6.8,21.8-17.4C65.7,73.2,62.9,73.4,62.4,73.4"/>
</svg>
