<?xml version="1.0" encoding="iso-8859-1"?>
<!-- Generator: Adobe Illustrator 21.0.2, SVG Export Plug-In . SVG Version: 6.00 Build 0)  -->
<svg version="1.1" id="Layer_1" xmlns="http://www.w3.org/2000/svg" xmlns:xlink="http://www.w3.org/1999/xlink" x="0px" y="0px"
	 viewBox="0 0 100 100" enable-background="new 0 0 100 100" xml:space="preserve">
<g>
	<path fill="#FFFFFF" d="M87.095,42.245h-8.222l-15.042-18.47c0.197-0.557,0.3-1.249,0.3-1.866c0-2.967-2.403-5.421-5.37-5.421
		c-2.961,0-5.362,2.38-5.362,5.347c0,2.961,2.401,5.352,5.362,5.352c0.313,0,0.605,0.173,0.893,0.132l12.133,14.927H31.323
		l12.133-14.937c0.282,0.045,0.586-0.029,0.887-0.029c2.967,0,5.364-2.454,5.364-5.428c0-2.961-2.397-5.392-5.364-5.392
		c-2.961,0-5.374,2.397-5.374,5.353c0,0.621,0.115,1.411,0.304,1.963l-15.042,18.47H12.901c-2.15,0-3.901,0.835-3.901,2.582
		c0,1.732,1.751,2.58,3.901,2.58h74.194c2.148,0,3.905-0.848,3.905-2.58C91,43.081,89.243,42.245,87.095,42.245z"/>
	<path fill="#FFFFFF" d="M82.55,52.57H17.44c-2.148,0-3.658,1.648-3.358,3.767l3.572,24.132c0.298,2.125,2.308,3.072,4.452,3.072
		h55.782c2.15,0,4.154-0.992,4.461-3.123l3.553-24.449C86.208,53.843,84.692,52.57,82.55,52.57z M29.06,75.796
		c0,1.412-1.164,2.582-2.582,2.582c-1.418,0-2.58-1.171-2.58-2.582V60.312c0-1.417,1.162-2.58,2.58-2.58
		c1.417,0,2.582,1.163,2.582,2.58V75.796z M44.545,75.796c0,1.412-1.165,2.582-2.58,2.582c-1.417,0-2.582-1.171-2.582-2.582V60.312
		c0-1.417,1.164-2.58,2.582-2.58c1.416,0,2.58,1.163,2.58,2.58V75.796z M60.029,75.796c0,1.412-1.163,2.582-2.58,2.582
		c-1.418,0-2.58-1.171-2.58-2.582V60.312c0-1.417,1.163-2.58,2.58-2.58c1.417,0,2.58,1.163,2.58,2.58V75.796z M75.516,75.796
		c0,1.412-1.165,2.582-2.582,2.582c-1.416,0-2.58-1.171-2.58-2.582V60.312c0-1.417,1.164-2.58,2.58-2.58
		c1.417,0,2.582,1.163,2.582,2.58V75.796z"/>
</g>
</svg>
