<?xml version="1.0" encoding="iso-8859-1"?>
<!-- Generator: Adobe Illustrator 21.0.2, SVG Export Plug-In . SVG Version: 6.00 Build 0)  -->
<svg version="1.1" id="Layer_1" xmlns="http://www.w3.org/2000/svg" xmlns:xlink="http://www.w3.org/1999/xlink" x="0px" y="0px"
	 viewBox="0 0 100 100" enable-background="new 0 0 100 100" xml:space="preserve">
<g>
	<g>
		<path fill="rgba(0, 0, 0, 0.4)" d="M50.001,32.938c0-12.189-27.132-14.626-39.001-14.626v4.876v43.875v4.874h2.439
			c0.851,0,1.627,0.006,2.437,0.01v4.866c9.75,0,29.249-2.923,29.249,4.874h9.75c0-7.797,19.501-4.874,29.251-4.874v-4.866
			c0.808,0,1.584-0.01,2.437-0.01H89V18.313C77.131,18.313,50.001,20.75,50.001,32.938z M15.876,23.189
			c2.427,0.023,4.618,0.123,6.675,0.261c0.4,0.024,0.8,0.047,1.204,0.076c0.148,0.01,0.304,0.023,0.447,0.033
			c9.594,0.685,19.753,2.695,20.772,8.447c0.096,0.328,0.152,0.646,0.152,0.933v34.125v2.176
			c-7.112-4.205-20.442-4.575-29.249-4.614V23.216V23.189z M84.126,64.625c-8.807,0.039-22.137,0.41-29.251,4.614v-2.176V32.938
			c0-3.229,5.151-9.512,29.251-9.75V64.625z"/>
	</g>
	<path fill="none" stroke="rgba(0, 0, 0, 0.4)" stroke-width="2" stroke-linecap="round" stroke-miterlimit="10" d="M19.033,30.021
		c14.985,0.25,22.477,3.996,22.477,3.996"/>
	<path fill="none" stroke="rgba(0, 0, 0, 0.4)" stroke-width="2" stroke-linecap="round" stroke-miterlimit="10" d="M19.033,34.517
		c14.985,0.25,22.477,3.996,22.477,3.996"/>
	<path fill="none" stroke="rgba(0, 0, 0, 0.4)" stroke-width="2" stroke-linecap="round" stroke-miterlimit="10" d="M19.033,38.929
		c14.985,0.25,22.477,4.079,22.477,4.079"/>
	<path fill="none" stroke="rgba(0, 0, 0, 0.4)" stroke-width="2" stroke-linecap="round" stroke-miterlimit="10" d="M19.033,43.424
		c14.985,0.25,22.477,4.079,22.477,4.079"/>
	<path fill="none" stroke="rgba(0, 0, 0, 0.4)" stroke-width="2" stroke-linecap="round" stroke-miterlimit="10" d="M19.033,48.003
		c14.985,0.25,22.477,3.996,22.477,3.996"/>
	<path fill="none" stroke="rgba(0, 0, 0, 0.4)" stroke-width="2" stroke-linecap="round" stroke-miterlimit="10" d="M19.033,52.415
		c14.985,0.25,22.477,4.079,22.477,4.079"/>
	<path fill="none" stroke="rgba(0, 0, 0, 0.4)" stroke-width="2" stroke-linecap="round" stroke-miterlimit="10" d="M19.033,56.994
		c14.985,0.25,22.477,3.996,22.477,3.996"/>
	<path fill="none" stroke="rgba(0, 0, 0, 0.4)" stroke-width="2" stroke-linecap="round" stroke-miterlimit="10" d="M57.781,34.017
		c0,0,7.537-5.744,23.476-5.744"/>
	<path fill="none" stroke="rgba(0, 0, 0, 0.4)" stroke-width="2" stroke-linecap="round" stroke-miterlimit="10" d="M57.781,38.713
		c0,0,7.537-5.744,23.476-5.744"/>
	<path fill="none" stroke="rgba(0, 0, 0, 0.4)" stroke-width="2" stroke-linecap="round" stroke-miterlimit="10" d="M57.781,42.899
		c0,0,7.537-5.744,23.476-5.744"/>
	<path fill="none" stroke="rgba(0, 0, 0, 0.4)" stroke-width="2" stroke-linecap="round" stroke-miterlimit="10" d="M57.781,47.504
		c0,0,7.537-5.744,23.476-5.744"/>
	<path fill="none" stroke="rgba(0, 0, 0, 0.4)" stroke-width="2" stroke-linecap="round" stroke-miterlimit="10" d="M57.781,51.781
		c0,0,7.537-5.744,23.476-5.744"/>
</g>
</svg>
