<?xml version="1.0" encoding="utf-8"?>
<!-- Generator: Adobe Illustrator 21.0.2, SVG Export Plug-In . SVG Version: 6.00 Build 0)  -->
<svg version="1.1" id="test" xmlns="http://www.w3.org/2000/svg" xmlns:xlink="http://www.w3.org/1999/xlink" x="0px" y="0px"
	 viewBox="0 0 100 100" style="enable-background:new 0 0 100 100;" xml:space="preserve">
<style type="text/css">
	.st0{fill:rgba(0, 0, 0, 0.4);}
</style>
<path class="st0" d="M29.9,78.3H10V25.8h19.9V78.3z M26.3,31.3H13.6v3.6h12.7V31.3z M26.3,36.7H13.6v1.8h12.7V36.7z M26.3,63.8H13.6
	v3.6h12.7V63.8z"/>
<path class="st0" d="M53.4,78.3H33.5V25.8h19.9V78.3z M49.8,31.3H37.1v3.6h12.7V31.3z M49.8,36.7H37.1v1.8h12.7V36.7z M49.8,63.8
	H37.1v3.6h12.7V63.8z"/>
<path class="st0" d="M90,69.5l-16.7,7.1L53,28.8l16.7-7.1L90,69.5z M69,26.6L57,31.6l1.4,3.3l11.9-5.1L69,26.6z M71.4,32.3
	l-11.9,5.1l1,2.4l11.9-5.1L71.4,32.3z M82.5,58.6l-11.9,5.1l1,2.4L83.6,61L82.5,58.6z"/>
</svg>
