<?xml version="1.0" encoding="iso-8859-1"?>
<!-- Generator: Adobe Illustrator 21.0.2, SVG Export Plug-In . SVG Version: 6.00 Build 0)  -->
<svg version="1.1" id="Layer_1" xmlns="http://www.w3.org/2000/svg" xmlns:xlink="http://www.w3.org/1999/xlink" x="0px" y="0px"
	 viewBox="0 0 100 100" enable-background="new 0 0 100 100" xml:space="preserve">
<g>
	<path fill="rgba(0, 0, 0, 0.4)" d="M12.189,49.308l5.667-19.249c1.086-3.393,4.382-6.074,9.185-6.074h6.086c4.811,0,8.098,2.68,9.18,6.074
		l5.663,19.249c1.177,4.128-3.44,5.596-4.661,1.735L37.322,33.45h-0.699c0,0,7.863,31.487,8.192,32.691
		c0.185,0.574-0.082,1.002-0.659,1.002c-0.377,0-6.792,0-6.792,0l-0.007,20.669c0,4.232-6.117,4.232-6.117,0V66.993h-2.329
		l0.002,20.819c0,4.232-6.109,4.232-6.109,0V67.143c0,0-6.417,0-6.783,0c-0.609,0-0.846-0.429-0.683-1.002
		c0.336-1.204,8.177-32.691,8.177-32.691h-0.683l-5.968,17.594C15.647,54.904,11.014,53.436,12.189,49.308"/>
	<ellipse fill="rgba(0, 0, 0, 0.4)" cx="30.074" cy="15.824" rx="6.596" ry="6.809"/>
	<path fill="rgba(0, 0, 0, 0.4)" d="M61.657,23.977h8.256h8.268c7.394,0,9.819,1.69,9.819,8.823v20.928c0,4.049-6.21,4.049-6.21,0L81.277,34.59
		h-1.582v52.38c0,5.428-8.416,5.273-8.416,0l-0.535-30.402h-1.666L68.541,86.97c0,5.273-8.409,5.428-8.409,0V34.59h-1.582
		l-0.54,19.139c0,4.049-6.18,4.049-6.18,0V32.8C51.845,25.668,54.251,23.977,61.657,23.977"/>
	<ellipse fill="rgba(0, 0, 0, 0.4)" cx="69.911" cy="15.822" rx="7.69" ry="6.809"/>
</g>
</svg>
