<?xml version="1.0" encoding="iso-8859-1"?>
<!-- Generator: Adobe Illustrator 21.0.2, SVG Export Plug-In . SVG Version: 6.00 Build 0)  -->
<svg version="1.1" id="Layer_1" xmlns="http://www.w3.org/2000/svg" xmlns:xlink="http://www.w3.org/1999/xlink" x="0px" y="0px"
	 viewBox="0 0 100 100" enable-background="new 0 0 100 100" xml:space="preserve">
<g>
	<path fill="rgba(0, 0, 0, 0.4)" d="M53.863,57.422c0,1.317-0.223,1.533-1.537,1.533h-5.358c-1.316,0-1.543-0.216-1.543-1.533v-9.169
		c0-1.769,2.643-2.057,5.214-2.941c2.631-0.946,5.202-2.417,5.202-6.374c0-3.374-2.129-5.214-6.087-5.214
		c-4.544,0-8.438,2.427-9.167,2.427c-0.37,0-0.736-0.361-0.807-0.73l-1.908-4.997c-0.149-0.288-0.149-0.504-0.149-0.802
		c0-1.912,8.729-4.328,13.645-4.328c8.873,0,14.374,5.716,14.374,13.716c0,9.459-7.553,11.947-11.881,13.418V57.422z M49.902,78.027
		c-3.521,0-6.235-2.867-6.235-6.167c0-3.516,2.713-6.232,6.235-6.232c3.452,0,6.161,2.786,6.161,6.232
		C56.063,75.16,53.271,78.027,49.902,78.027z"/>
</g>
<circle fill="none" stroke="rgba(0, 0, 0, 0.4)" stroke-width="4.5" stroke-miterlimit="10" cx="50" cy="50" r="38.125"/>
</svg>
