<?xml version="1.0" encoding="iso-8859-1"?>
<!-- Generator: Adobe Illustrator 21.0.2, SVG Export Plug-In . SVG Version: 6.00 Build 0)  -->
<svg version="1.1" id="Layer_1" xmlns="http://www.w3.org/2000/svg" xmlns:xlink="http://www.w3.org/1999/xlink" x="0px" y="0px"
	 viewBox="0 0 100 100" enable-background="new 0 0 100 100" xml:space="preserve">
<line fill="none" stroke="#FFFFFF" stroke-width="4" stroke-miterlimit="10" x1="48.81" y1="53.562" x2="69.533" y2="53.562"/>
<line fill="none" stroke="#FFFFFF" stroke-width="4" stroke-miterlimit="10" x1="48.81" y1="61.753" x2="69.533" y2="61.753"/>
<line fill="none" stroke="#FFFFFF" stroke-width="4" stroke-miterlimit="10" x1="48.81" y1="69.839" x2="65.061" y2="69.839"/>
<path fill="#FFFFFF" d="M9.534,16.25h71.402v9.934H90.5v51.504c0,0-0.663,5.975-7.542,6.037c-6.879,0.058-64.016,0-64.016,0
	s-9.331,0.741-9.407-5.964C9.457,71.055,9.534,16.25,9.534,16.25z M15.257,75.196c0.08,3.892,3.919,4.55,3.919,4.55h56.198V20.141
	H15.257C15.257,20.141,15.178,71.303,15.257,75.196z"/>
<rect x="19.851" y="43.464" fill="#FFFFFF" width="25.234" height="28.506"/>
<line fill="#FFFFFF" stroke="#FFFFFF" stroke-width="4" stroke-miterlimit="10" x1="19.851" y1="37.285" x2="69.533" y2="37.285"/>
<line fill="#FFFFFF" stroke="#FFFFFF" stroke-width="4" stroke-miterlimit="10" x1="48.81" y1="45.603" x2="69.533" y2="45.603"/>
<line fill="#FFFFFF" stroke="#FFFFFF" stroke-width="4" stroke-miterlimit="10" x1="19.851" y1="29.225" x2="69.533" y2="29.225"/>
</svg>
