<?xml version="1.0" encoding="iso-8859-1"?>
<!-- Generator: Adobe Illustrator 21.0.2, SVG Export Plug-In . SVG Version: 6.00 Build 0)  -->
<svg version="1.1" id="Layer_1" xmlns="http://www.w3.org/2000/svg" xmlns:xlink="http://www.w3.org/1999/xlink" x="0px" y="0px"
	 viewBox="0 0 100 100" enable-background="new 0 0 100 100" xml:space="preserve">
<g>
	<g>
		<path fill="rgba(0, 0, 0, 0.4)" d="M54.65,49.087c0,0,0.984-8.489,1.65-10.907c0.667-2.418,2.215-2.955,2.215-2.955l0.491-0.186
			c0,0,0.65-0.493,6.03-1.748c5.635-1.316,10.901,0,10.901,0s3.933,0.698,6.174,1.989c1.601,0.921,1.83,2.632,1.83,2.632
			l1.521,11.166L85.16,62.643l-0.067,0.738l-0.178,0.756l-0.633,0.06l-0.803-0.073H56.73l-0.822,0.044l-0.702-0.212l-0.366-0.762
			l-0.189-0.81V49.087z M82.391,40.835c0-0.712-1-1.375-1.706-1.375H59.379c-0.707,0-1.467,0.743-1.467,1.455l-0.96,8.377
			c0,0.712,0.573,1.5,1.28,1.5h24.105c0.707,0,1.28-0.788,1.28-1.5L82.391,40.835z M76.821,37.794c0-0.329-0.275-0.333-0.616-0.333
			H64.477c-0.342,0-0.618,0.004-0.618,0.333l0,0c0,0.329,0.276,0.333,0.618,0.333h11.728C76.546,38.127,76.821,38.124,76.821,37.794
			L76.821,37.794z M58.696,56.008c-1.087,0-1.967,0.879-1.967,1.965c0,1.087,0.88,1.966,1.967,1.966c1.086,0,1.965-0.88,1.965-1.966
			C60.662,56.888,59.782,56.008,58.696,56.008z M81.682,56.008c-1.087,0-1.966,0.879-1.966,1.965c0,1.087,0.879,1.966,1.966,1.966
			c1.086,0,1.966-0.88,1.966-1.966C83.649,56.888,82.769,56.008,81.682,56.008z"/>
		<path fill="rgba(0, 0, 0, 0.4)" d="M59.983,65.334c0,0.488-1.228,1.456-1.715,1.456h-0.05c-0.488,0-1.568-0.968-1.568-1.456v-3.076
			c0-0.487,1.08-0.801,1.568-0.801h0.05c0.488,0,1.715,0.314,1.715,0.801V65.334z"/>
		<path fill="rgba(0, 0, 0, 0.4)" d="M83.979,65.334c0,0.488-1.028,1.456-1.515,1.456h-0.05c-0.488,0-1.767-0.968-1.767-1.456v-3.076
			c0-0.487,1.28-0.801,1.767-0.801h0.05c0.488,0,1.515,0.314,1.515,0.801V65.334z"/>
	</g>

		<line fill="none" stroke="rgba(0, 0, 0, 0.4)" stroke-width="1.815" stroke-linecap="round" stroke-linejoin="round" stroke-miterlimit="10" x1="80.624" y1="64.3" x2="90" y2="75.389"/>

		<line fill="none" stroke="rgba(0, 0, 0, 0.4)" stroke-width="1.815" stroke-linecap="round" stroke-linejoin="round" stroke-miterlimit="10" x1="59.452" y1="64.3" x2="51.185" y2="75.389"/>
	<polygon fill="rgba(0, 0, 0, 0.4)" points="83.905,71.854 56.949,71.865 54.916,74.788 86.068,74.788 	"/>
	<polygon fill="rgba(0, 0, 0, 0.4)" points="80.888,68.032 59.657,67.845 58.03,70.123 82.628,70.123 	"/>
	<polygon fill="rgba(0, 0, 0, 0.4)" points="79.256,65.146 61.376,65.302 60.49,66.79 80.167,66.79 	"/>
</g>
<g>
	<path fill="rgba(0, 0, 0, 0.4)" d="M18.485,75.267h-2.66c-0.41,0-0.746-0.364-0.746-0.809v-7.388c0-0.445,0.303,0.973,0.714,0.973l2.768,0.023
		c0.41,0,0.67-1.442,0.67-0.997v7.388C19.231,74.903,18.895,75.267,18.485,75.267z"/>
	<path fill="rgba(0, 0, 0, 0.4)" d="M42.476,75.267h-2.659c-0.41,0-0.746-0.364-0.746-0.809v-7.388c0-0.445,0.368,0.926,0.778,0.926
		l2.627-1.735c0.41,0,0.746,0.364,0.746,0.809v7.388C43.222,74.903,42.886,75.267,42.476,75.267z"/>
	<path fill="rgba(0, 0, 0, 0.4)" d="M42.988,70.764H15.516c-0.859,0-1.563-0.703-1.563-1.563V29.173c0-2.509,2.053-4.563,4.563-4.563h21.269
		c2.509,0,4.563,2.053,4.563,4.563v40.232C44.348,70.153,43.736,70.764,42.988,70.764z M19.582,63.26
		c-0.933,0-1.689,0.756-1.689,1.689c0,0.933,0.756,1.689,1.689,1.689c0.933,0,1.689-0.756,1.689-1.689
		C21.271,64.016,20.515,63.26,19.582,63.26z M38.719,63.26c-0.933,0-1.689,0.756-1.689,1.689c0,0.933,0.756,1.689,1.689,1.689
		c0.933,0,1.689-0.756,1.689-1.689C40.408,64.016,39.652,63.26,38.719,63.26z M34.826,66.062L34.826,66.062
		c0-0.316-0.258-0.575-0.575-0.575H24.05c-0.316,0-0.575,0.259-0.575,0.575l0,0c0,0.316,0.259,0.575,0.575,0.575h10.202
		C34.568,66.637,34.826,66.378,34.826,66.062z M42.659,61.27V47.192c0-0.424-0.347-0.771-0.771-0.771H16.413
		c-0.424,0-0.771,0.347-0.771,0.771V61.27c0,0.424,0.347,0.771,0.771,0.771h25.475C42.312,62.04,42.659,61.693,42.659,61.27z
		 M42.659,40.303v-10.63c0-0.424-0.347-0.771-0.771-0.771H16.413c-0.424,0-0.771,0.347-0.771,0.771v10.63
		c0,0.424,0.347,0.771,0.771,0.771h25.475C42.312,41.074,42.659,40.727,42.659,40.303z M42.659,43.255H15.642v0.985h27.017V43.255z"
		/>
	<path fill="rgba(0, 0, 0, 0.4)" d="M11.596,54.358L11.596,54.358c-0.878,0-1.596-0.718-1.596-1.596v-5.015c0-0.878,0.718-1.596,1.596-1.596
		h1.596v6.611C13.191,53.64,12.473,54.358,11.596,54.358z"/>
	<rect x="12.309" y="46.151" fill="rgba(0, 0, 0, 0.4)" width="1.868" height="1.868"/>
	<path fill="rgba(0, 0, 0, 0.4)" d="M46.706,54.652L46.706,54.652c0.877,0,1.596-0.718,1.596-1.596v-5.015c0-0.878-0.718-1.596-1.596-1.596
		H45.11v6.611C45.11,53.934,45.828,54.652,46.706,54.652z"/>

		<rect x="44.094" y="46.446" transform="matrix(-1 -1.224647e-16 1.224647e-16 -1 90.0567 94.7597)" fill="rgba(0, 0, 0, 0.4)" width="1.868" height="1.868"/>
	<rect x="28.307" y="45.507" fill="rgba(0, 0, 0, 0.4)" width="1.689" height="17.8"/>
</g>
</svg>
