<?xml version="1.0" encoding="iso-8859-1"?>
<!-- Generator: Adobe Illustrator 21.0.2, SVG Export Plug-In . SVG Version: 6.00 Build 0)  -->
<svg version="1.1" id="Layer_1" xmlns="http://www.w3.org/2000/svg" xmlns:xlink="http://www.w3.org/1999/xlink" x="0px" y="0px"
	 viewBox="0 0 100 100" enable-background="new 0 0 100 100" xml:space="preserve">
<g>
	<path fill="#FFFFFF" d="M54.881,17.328c0,3.489-3.102,6.321-6.947,6.321c-3.828,0-6.938-2.832-6.938-6.321
		c0-3.501,3.11-6.328,6.938-6.328C51.779,11,54.881,13.827,54.881,17.328z"/>
	<path fill="#FFFFFF" d="M61.736,64.069c0.018,0.38,0.046,0.771,0.037,1.16c-0.171,10.424-9.632,18.915-21.075,18.915h-0.335
		c-5.636-0.087-10.896-2.152-14.821-5.841c-3.918-3.689-6.027-8.536-5.938-13.665c0.112-6.808,4.194-12.766,10.18-16.099
		l0.958-5.879c-9.506,3.552-16.312,12.031-16.479,21.899c-0.107,6.426,2.538,12.509,7.446,17.129
		c4.921,4.619,11.513,7.207,18.57,7.313h0.418c12.441,0,23.006-8.003,25.719-18.663L61.736,64.069z"/>
	<path fill="#FFFFFF" d="M87.75,75.729c-2.25,1.601-7.282,4.701-8.341,5.238c-0.493,0.128-1.607,1.371-4.941-3.409
		C71.58,73.21,63.361,61.967,63.361,61.967s-1.115-2.033-3.702-2.402c-2.497-0.616-22.591-3.572-22.591-3.572
		s-5.168-0.3-4.836-5.627c0.34-5.313,2.005-14.723,2.005-14.723s0-2.125-2.005-1.368c-1.997,0.764-4.083,1.368-5.663,2.278
		c-1.589,0.911-8.755,10.785-9.425,11.385c-0.663,0.618-1.911,1.904-4.248,0.762c-2.006-1.061-2.415-2.577-1.252-4.255
		c1.022-1.455,7.586-10.853,10.587-13.129c3.002-2.277,10.001-4.33,12.917-5.084c5.113-1.64,15.926-1.64,14.792,3.434
		c-2.898,12.756-2.741,15.473-2.741,15.473s-0.427,1.983,2.076,2.284c2.505,0.305,14.299,2.42,15.801,3.024
		c1.499,0.608,2.332,1.596,3.501,3.423c1.164,1.823,12.449,17.716,12.449,17.716s0.778,0.912,2.331,0.305
		C88.362,69.665,90.59,73.303,87.75,75.729z"/>
</g>
</svg>
