<?xml version="1.0" encoding="utf-8"?>
<!-- Generator: Adobe Illustrator 21.0.2, SVG Export Plug-In . SVG Version: 6.00 Build 0)  -->
<svg version="1.1" id="Layer_1" xmlns="http://www.w3.org/2000/svg" xmlns:xlink="http://www.w3.org/1999/xlink" x="0px" y="0px"
	 viewBox="0 0 100 100" style="enable-background:new 0 0 100 100;" xml:space="preserve">
<style type="text/css">
	.st0{fill:#FFFFFF;}
</style>
<g>
	<g>
		<path class="st0" d="M75.9,55.4c-0.3-0.2-0.7-0.3-1.1-0.5c-0.6-0.2-1.3-0.4-2-0.4c-0.6,0-1.2,0.2-1.8,0.4
			c-1.3,0.5-2.5,1.2-3.5,2.1c-1.1,1-2,2.2-2.9,3.3c-1.1,1.4-2.2,2.8-3.4,4.1c-0.5,0.6-1,1.1-1.4,1.8c-0.9,1.5-1.7,3-2,4.7
			c-0.2,0.8-0.2,1.6-0.1,2.3c0.2,0.8,0.6,1.5,1,2.1c0.4,0.6,0.8,0.9,1.4,1.2c0.6,0.3,1.3,0.4,1.9,0.4c0.8,0,1.6-0.3,2.3-0.7
			c0.4-0.3,0.8-0.6,1.1-0.9c0.7-0.7,1.2-1.7,1.6-2.6c0.6-1.6,0.9-3.2,1.5-4.8c0.4-1.1,1-2.1,1.6-3.2c0.6-0.9,1.3-1.8,2-2.6
			c0.7-0.8,1.6-1.5,2.3-2.4c0.7-0.8,1.2-1.7,1.7-2.7C76.4,56.5,76.4,55.8,75.9,55.4z"/>
		<path class="st0" d="M78.3,56.8c0.3,0.2,0.6,0.5,0.9,0.7c0.5,0.4,1,0.9,1.3,1.5c0.3,0.5,0.5,1.1,0.6,1.7c0.3,1.3,0.2,2.7,0,4.1
			c-0.3,1.4-0.9,2.8-1.4,4.2c-0.6,1.7-1.3,3.3-1.9,5c-0.3,0.7-0.5,1.4-0.9,2.1c-0.9,1.5-1.7,2.9-3,4.1c-0.6,0.5-1.3,1-2,1.2
			c-0.7,0.2-1.5,0.2-2.3,0.2c-0.7,0-1.2-0.2-1.8-0.6c-0.5-0.4-1-0.9-1.3-1.5c-0.4-0.7-0.5-1.5-0.5-2.3c0-0.5,0.1-1,0.2-1.4
			c0.3-1,0.8-1.9,1.5-2.7c1-1.3,2.3-2.4,3.4-3.7c0.7-0.9,1.4-1.9,1.9-2.9c0.5-1,0.9-2,1.3-3c0.4-1,0.5-2.1,0.9-3.2
			c0.4-1,0.9-1.9,1.5-2.8C77.1,56.9,77.7,56.5,78.3,56.8z"/>
	</g>
	<g>
		<path class="st0" d="M65.6,10.8c-0.3-0.2-0.7-0.3-1.1-0.5c-0.6-0.2-1.3-0.4-2-0.4c-0.6,0-1.2,0.2-1.8,0.4
			c-1.3,0.5-2.5,1.2-3.5,2.1c-1.1,1-2,2.2-2.9,3.3c-1.1,1.4-2.2,2.8-3.4,4.1c-0.5,0.6-1,1.1-1.4,1.8c-0.9,1.5-1.7,3-2,4.7
			c-0.2,0.8-0.2,1.6-0.1,2.3c0.2,0.8,0.6,1.5,1,2.1c0.4,0.6,0.8,0.9,1.4,1.2c0.6,0.3,1.3,0.4,1.9,0.4c0.8,0,1.6-0.3,2.3-0.7
			c0.4-0.3,0.8-0.6,1.1-0.9c0.7-0.7,1.2-1.7,1.6-2.6c0.6-1.6,0.9-3.2,1.5-4.8c0.4-1.1,1-2.1,1.6-3.2c0.6-0.9,1.3-1.8,2-2.6
			c0.7-0.8,1.6-1.5,2.3-2.4c0.7-0.8,1.2-1.7,1.7-2.7C66.1,11.9,66.1,11.2,65.6,10.8z"/>
		<path class="st0" d="M68,12.2c0.3,0.2,0.6,0.5,0.9,0.7c0.5,0.4,1,0.9,1.3,1.5c0.3,0.5,0.5,1.1,0.6,1.7c0.3,1.3,0.2,2.7,0,4.1
			c-0.3,1.4-0.9,2.8-1.4,4.2c-0.6,1.7-1.3,3.3-1.9,5c-0.3,0.7-0.5,1.4-0.9,2.1c-0.9,1.5-1.7,2.9-3,4.1c-0.6,0.5-1.3,1-2,1.2
			C60.9,37,60.1,37,59.3,37c-0.7,0-1.2-0.2-1.8-0.6c-0.5-0.4-1-0.9-1.3-1.5c-0.4-0.7-0.5-1.5-0.5-2.3c0-0.5,0.1-1,0.2-1.4
			c0.3-1,0.8-1.9,1.5-2.7c1-1.3,2.3-2.4,3.4-3.7c0.7-0.9,1.4-1.9,1.9-2.9c0.5-1,0.9-2,1.3-3c0.4-1,0.5-2.1,0.9-3.2
			c0.4-1,0.9-1.9,1.5-2.8C66.8,12.3,67.4,11.9,68,12.2z"/>
	</g>
	<g>
		<path class="st0" d="M32,63.2c-0.3-0.2-0.7-0.3-1.1-0.5c-0.6-0.2-1.3-0.4-2-0.4c-0.6,0-1.2,0.2-1.8,0.4c-1.3,0.5-2.5,1.2-3.5,2.1
			c-1.1,1-2,2.2-2.9,3.3c-1.1,1.4-2.2,2.8-3.4,4.1c-0.5,0.6-1,1.1-1.4,1.8c-0.9,1.5-1.7,3-2,4.7c-0.2,0.8-0.2,1.6-0.1,2.3
			c0.2,0.8,0.6,1.5,1,2.1c0.4,0.6,0.8,0.9,1.4,1.2c0.6,0.3,1.3,0.4,1.9,0.4c0.8,0,1.6-0.3,2.3-0.7c0.4-0.3,0.8-0.6,1.1-0.9
			c0.7-0.7,1.2-1.7,1.6-2.6c0.6-1.6,0.9-3.2,1.5-4.8c0.4-1.1,1-2.1,1.6-3.2c0.6-0.9,1.3-1.8,2-2.6c0.7-0.8,1.6-1.5,2.3-2.4
			c0.7-0.8,1.2-1.7,1.7-2.7C32.5,64.3,32.5,63.6,32,63.2z"/>
		<path class="st0" d="M34.4,64.5c0.3,0.2,0.6,0.5,0.9,0.7c0.5,0.4,1,0.9,1.3,1.5c0.3,0.5,0.5,1.1,0.6,1.7c0.3,1.3,0.2,2.7,0,4.1
			c-0.3,1.4-0.9,2.8-1.4,4.2c-0.6,1.7-1.3,3.3-1.9,5c-0.3,0.7-0.5,1.4-0.9,2.1c-0.9,1.5-1.7,2.9-3,4.1c-0.6,0.5-1.3,1-2,1.2
			c-0.7,0.2-1.5,0.2-2.3,0.2c-0.7,0-1.2-0.2-1.8-0.6c-0.5-0.4-1-0.9-1.3-1.5c-0.4-0.7-0.5-1.5-0.5-2.3c0-0.5,0.1-1,0.2-1.4
			c0.3-1,0.8-1.9,1.5-2.7c1-1.3,2.3-2.4,3.4-3.7c0.7-0.9,1.4-1.9,1.9-2.9c0.5-1,0.9-2,1.3-3c0.4-1,0.5-2.1,0.9-3.2
			c0.4-1,0.9-1.9,1.5-2.8C33.2,64.6,33.8,64.3,34.4,64.5z"/>
	</g>
</g>
</svg>
